<?xml version="1.0" encoding="utf-8"?>

<svg version="1.1" xmlns="http://www.w3.org/2000/svg" xmlns:xlink="http://www.w3.org/1999/xlink" width="538" height="60">
<g transform="translate(320, 42)">
<polygon fill="#666666" points="3,1 4,0 10,6 10,6 10,6 4,12 3,11 8,6 " xmlns="http://www.w3.org/2000/svg" />
</g>
<g transform="translate(306, 42)">
<polygon fill="#666666" points="9,1 8,0 2,6 2,6 2,6 8,12 9,11 4,6 " xmlns="http://www.w3.org/2000/svg" />
</g>
<g transform="translate(208, 42)">
<polygon fill="#666666" points="3,1 4,0 10,6 10,6 10,6 4,12 3,11 8,6 " xmlns="http://www.w3.org/2000/svg" />
</g>
<g transform="translate(222, 42)">
<polygon fill="#666666" points="5,1 6,0 12,6 12,6 12,6 6,12 5,11 10,6 " xmlns="http://www.w3.org/2000/svg" />
<polygon fill="#666666" points="1,1 2,0 8,6 8,6 8,6 2,12 1,11 6,6 " xmlns="http://www.w3.org/2000/svg" />
</g>
<g transform="translate(194, 42)">
<polygon fill="#666666" points="9,1 8,0 2,6 2,6 2,6 8,12 9,11 4,6 " xmlns="http://www.w3.org/2000/svg" />
</g>
<g transform="translate(292, 42)">
<polygon fill="#666666" points="7,1 6,0 0,6 0,6 0,6 6,12 7,11 2,6 " xmlns="http://www.w3.org/2000/svg" />
<polygon fill="#666666" points="11,1 10,0 4,6 4,6 4,6 10,12 11,11 6,6 " xmlns="http://www.w3.org/2000/svg" />
</g>
<g transform="translate(180, 42)">
<polygon fill="#666666" points="3,1 4,0 10,6 10,6 10,6 4,12 3,11 8,6 " xmlns="http://www.w3.org/2000/svg" />
</g>
<g transform="translate(264, 42)">
<polygon fill="#666666" points="9,1 8,0 2,6 2,6 2,6 8,12 9,11 4,6 " xmlns="http://www.w3.org/2000/svg" />
</g>
<g transform="translate(278, 42)">
<polygon fill="#666666" points="3,1 4,0 10,6 10,6 10,6 4,12 3,11 8,6 " xmlns="http://www.w3.org/2000/svg" />
</g>
<g transform="translate(236, 42)">
<polygon fill="#666666" points="5,1 6,0 12,6 12,6 12,6 6,12 5,11 10,6 " xmlns="http://www.w3.org/2000/svg" />
<polygon fill="#666666" points="1,1 2,0 8,6 8,6 8,6 2,12 1,11 6,6 " xmlns="http://www.w3.org/2000/svg" />
</g>
<g transform="translate(522, 24)">
<polygon fill="#666666" points="9,1 8,0 2,6 2,6 2,6 8,12 9,11 4,6 " xmlns="http://www.w3.org/2000/svg" />
</g>
<g transform="translate(250, 42)">
<polygon fill="#666666" points="7,1 6,0 0,6 0,6 0,6 6,12 7,11 2,6 " xmlns="http://www.w3.org/2000/svg" />
<polygon fill="#666666" points="11,1 10,0 4,6 4,6 4,6 10,12 11,11 6,6 " xmlns="http://www.w3.org/2000/svg" />
</g>
<g transform="translate(24, 0)">
<style type="text/css" xmlns="http://www.w3.org/2000/svg">
	.st012 {fill:#666666;}
</style>
<g xmlns="http://www.w3.org/2000/svg">
	<path class="st012" d="M7.7,14.7l-4.3-4.1L2,12l5.7,5.5L20,5.8l-1.4-1.4L7.7,14.7z" />
</g>
</g>
<g transform="translate(0, 0)">
<style type="text/css" xmlns="http://www.w3.org/2000/svg">
	.st013 {fill:#666666;}
</style>
<g xmlns="http://www.w3.org/2000/svg">
	<path class="st013" d="M18,5.4L16.6,4L11,9.6L5.4,4L4,5.4L9.6,11L4,16.6L5.4,18l5.6-5.6l5.6,5.6l1.4-1.4L12.4,11L18,5.4z" />
</g>
</g>
<g transform="translate(72, 42)">
<style type="text/css" xmlns="http://www.w3.org/2000/svg">
	.st014 {opacity:0.5;}
	.st114 {fill:#757575;}
	.st214 {fill-rule:evenodd;clip-rule:evenodd;fill:#757575;}
</style>
<g id="_x32_" class="st014" xmlns="http://www.w3.org/2000/svg">
	<g>
		<path class="st114" d="M2,6h2V4H2V6z M5,12h2v-2H5V12z M2,9h2V7H2V9z M2,12h2v-2H2V12z M8,6h2V4H8V6z M11,4v2h2V4H11z M5,6h2V4H5V6z&#xD;&#xA;			 M5,9h2V7H5V9z" />
	</g>
</g>
<path id="_x31_" class="st214" d="M16,12.3l-0.8,1.4c0,0.1-0.2,0.1-0.2,0.1l-1-0.4c-0.2,0.2-0.5,0.3-0.7,0.4L13,14.8&#xD;&#xA;	c0,0.1-0.1,0.2-0.2,0.2h-1.6c-0.1,0-0.2-0.1-0.2-0.2l-0.2-1.1c-0.2-0.1-0.5-0.2-0.7-0.4l-1,0.4c-0.1,0-0.2,0-0.2-0.1L8,12.3&#xD;&#xA;	c0-0.1,0-0.2,0-0.2l0.9-0.7l0-0.4l0-0.4L8.1,9.9C8,9.9,8,9.8,8,9.7l0.8-1.4C8.9,8.2,9,8.2,9.1,8.2l1,0.4c0.2-0.1,0.5-0.3,0.7-0.4&#xD;&#xA;	l0.2-1.1c0-0.1,0.1-0.2,0.2-0.2h1.6C12.9,7,13,7.1,13,7.1l0.2,1.1c0.2,0.1,0.5,0.2,0.7,0.4l1-0.4c0.1,0,0.2,0,0.2,0.1l0.8,1.4&#xD;&#xA;	c0,0.1,0,0.2,0,0.2L15,10.6l0,0.4l0,0.4l0.9,0.7C16,12.1,16,12.2,16,12.3z M12,9.7c-0.7,0-1.3,0.6-1.3,1.3c0,0.7,0.6,1.3,1.3,1.3&#xD;&#xA;	c0.7,0,1.3-0.6,1.3-1.3C13.4,10.3,12.8,9.7,12,9.7z M14,3H1v10h6v1H0.5C0.2,14,0,13.8,0,13.5v-12C0,1.2,0.2,1,0.5,1h14&#xD;&#xA;	C14.8,1,15,1.2,15,1.5V6h-1V3z" xmlns="http://www.w3.org/2000/svg" />
</g>
<g transform="translate(90, 42)">
<g xmlns="http://www.w3.org/2000/svg">
	<rect x="2" y="1" style="fill:#757575;" width="5" height="2" />
</g>
<g xmlns="http://www.w3.org/2000/svg">
	<g>
		<rect x="2" y="4" style="fill:#44A147;" width="8" height="1" />
	</g>
	<g>
		<rect x="2" y="6" style="fill:#44A147;" width="8" height="1" />
	</g>
	<g>
		<rect x="2" y="8" style="fill:#44A147;" width="7" height="1" />
	</g>
	<polygon style="fill:#44A147;" points="14,10 12,10 12,8 10,8 10,10 8,10 8,12 10,12 10,14 12,14 12,12 14,12 	" />
</g>
</g>
<g transform="translate(108, 42)">
<g xmlns="http://www.w3.org/2000/svg">
	<rect x="2" y="5" style="fill:#44A147;" width="5" height="2" />
</g>
<g xmlns="http://www.w3.org/2000/svg">
	<g>
		<rect x="2" y="8" style="fill:#757575;" width="8" height="1" />
	</g>
	<g>
		<rect x="2" y="10" style="fill:#757575;" width="8" height="1" />
	</g>
	<g>
		<rect x="2" y="12" style="fill:#757575;" width="8" height="1" />
	</g>
</g>
<polygon style="fill:#44A147;" points="14,3 12,3 12,1 10,1 10,3 8,3 8,5 10,5 10,7 12,7 12,5 14,5 " xmlns="http://www.w3.org/2000/svg" />
</g>
<g transform="translate(126, 42)">
<style type="text/css" xmlns="http://www.w3.org/2000/svg">
	.st017 {fill:#757575;}
	.st117 {fill:#317D3D;}
	.st217 {fill:#67BC6B;}
</style>
<path class="st017" d="M10.5,4C9.6,4,8.7,4.3,8,4.8C7.3,4.3,6.4,4,5.5,4C3,4,1,6,1,8.5S3,13,5.5,13c0.9,0,1.8-0.3,2.5-0.8&#xD;&#xA;	c0.7,0.5,1.6,0.8,2.5,0.8C13,13,15,11,15,8.5S13,4,10.5,4z M8,10.9c-0.6-0.6-1-1.5-1-2.4s0.4-1.8,1-2.4c0.6,0.6,1,1.5,1,2.4&#xD;&#xA;	S8.6,10.3,8,10.9z M2,8.5C2,6.6,3.6,5,5.5,5c0.6,0,1.2,0.2,1.7,0.5C6.5,6.3,6,7.3,6,8.5s0.5,2.2,1.2,3C6.7,11.8,6.1,12,5.5,12&#xD;&#xA;	C3.6,12,2,10.4,2,8.5z M10.5,12c-0.6,0-1.2-0.2-1.7-0.5c0.7-0.8,1.2-1.9,1.2-3s-0.5-2.2-1.2-3C9.3,5.2,9.9,5,10.5,5&#xD;&#xA;	C12.4,5,14,6.6,14,8.5S12.4,12,10.5,12z" xmlns="http://www.w3.org/2000/svg" />
<path class="st117" d="M8,4.8C7.7,5,6,6.2,6,8.5c0,2.4,1.7,3.6,2,3.8c0.3-0.2,2-1.4,2-3.8C10,6.2,8.3,5,8,4.8z" xmlns="http://www.w3.org/2000/svg" />
<path class="st217" d="M8,10.9c-0.6-0.6-1-1.5-1-2.4S7.4,6.6,8,6c0.6,0.6,1,1.5,1,2.4S8.6,10.3,8,10.9z" xmlns="http://www.w3.org/2000/svg" />
</g>
<g transform="translate(144, 42)">
<style type="text/css" xmlns="http://www.w3.org/2000/svg">
	.st018 {fill:#757575;}
	.st118 {fill:#B72025;}
	.st218 {fill:#EF5551;}
</style>
<path class="st018" d="M10.5,4C9.6,4,8.7,4.3,8,4.8C7.3,4.3,6.4,4,5.5,4C3,4,1,6,1,8.5S3,13,5.5,13c0.9,0,1.8-0.3,2.5-0.8&#xD;&#xA;	c0.7,0.5,1.6,0.8,2.5,0.8C13,13,15,11,15,8.5S13,4,10.5,4z M8,10.9c-0.6-0.6-1-1.5-1-2.4s0.4-1.8,1-2.4c0.6,0.6,1,1.5,1,2.4&#xD;&#xA;	S8.6,10.3,8,10.9z M2,8.5C2,6.6,3.6,5,5.5,5c0.6,0,1.2,0.2,1.7,0.5C6.5,6.3,6,7.3,6,8.5s0.5,2.2,1.2,3C6.7,11.8,6.1,12,5.5,12&#xD;&#xA;	C3.6,12,2,10.4,2,8.5z M10.5,12c-0.6,0-1.2-0.2-1.7-0.5c0.7-0.8,1.2-1.9,1.2-3s-0.5-2.2-1.2-3C9.3,5.2,9.9,5,10.5,5&#xD;&#xA;	C12.4,5,14,6.6,14,8.5S12.4,12,10.5,12z" xmlns="http://www.w3.org/2000/svg" />
<path class="st118" d="M8,4.8C7.7,5,6,6.2,6,8.5c0,2.4,1.7,3.6,2,3.8c0.3-0.2,2-1.4,2-3.8C10,6.2,8.3,5,8,4.8z" xmlns="http://www.w3.org/2000/svg" />
<path class="st218" d="M8,11c-0.6-0.6-1-1.6-1-2.5S7.4,6.6,8,6c0.6,0.6,1,1.5,1,2.5S8.6,10.4,8,11z" xmlns="http://www.w3.org/2000/svg" />
</g>
<g transform="translate(360, 24)">
<style type="text/css" xmlns="http://www.w3.org/2000/svg">
	.st019 {fill:#EF5551;}
	.st119 {fill:#B72025;}
</style>
<g xmlns="http://www.w3.org/2000/svg">
	<path class="st019" d="M7.2,5.5C6.7,5.2,6.1,5,5.5,5C3.5,5,2,6.6,2,8.5S3.5,12,5.5,12c0.6,0,1.2-0.2,1.7-0.5C6.5,10.7,6,9.7,6,8.5&#xD;&#xA;		S6.5,6.3,7.2,5.5z" />
	<path class="st019" d="M10.5,5C9.9,5,9.3,5.2,8.8,5.5c0.7,0.8,1.2,1.9,1.2,3s-0.5,2.2-1.2,3c0.5,0.3,1.1,0.5,1.7,0.5&#xD;&#xA;		c1.9,0,3.5-1.6,3.5-3.5S12.4,5,10.5,5z" />
	<path class="st119" d="M10.5,4C9.6,4,8.7,4.3,8,4.8C7.3,4.3,6.4,4,5.5,4C3,4,1,6,1,8.5S3,13,5.5,13c0.9,0,1.8-0.3,2.5-0.8&#xD;&#xA;		c0.7,0.5,1.6,0.8,2.5,0.8C13,13,15,11,15,8.5S13,4,10.5,4z M2,8.5C2,6.6,3.5,5,5.5,5c0.6,0,1.2,0.2,1.7,0.5C6.5,6.3,6,7.3,6,8.5&#xD;&#xA;		s0.5,2.2,1.2,3C6.7,11.8,6.1,12,5.5,12C3.5,12,2,10.4,2,8.5z M10.5,12c-0.6,0-1.2-0.2-1.7-0.5c0.7-0.8,1.2-1.9,1.2-3&#xD;&#xA;		s-0.5-2.2-1.2-3C9.3,5.2,9.9,5,10.5,5C12.4,5,14,6.6,14,8.5S12.4,12,10.5,12z" />
</g>
</g>
<g transform="translate(342, 24)">
<style type="text/css" xmlns="http://www.w3.org/2000/svg">
	.st020 {fill:#67BC6B;}
	.st120 {fill:#317D3D;}
</style>
<g xmlns="http://www.w3.org/2000/svg">
	<path class="st020" d="M7.2,5.5C6.7,5.2,6.1,5,5.5,5C3.5,5,2,6.6,2,8.5S3.5,12,5.5,12c0.6,0,1.2-0.2,1.7-0.5C6.5,10.7,6,9.7,6,8.5&#xD;&#xA;		S6.5,6.3,7.2,5.5z" />
	<path class="st020" d="M10.5,5C9.9,5,9.3,5.2,8.8,5.5c0.7,0.8,1.2,1.9,1.2,3s-0.5,2.2-1.2,3c0.5,0.3,1.1,0.5,1.7,0.5&#xD;&#xA;		c1.9,0,3.5-1.6,3.5-3.5S12.4,5,10.5,5z" />
	<path class="st120" d="M10.5,4C9.6,4,8.7,4.3,8,4.8C7.3,4.3,6.4,4,5.5,4C3,4,1,6,1,8.5S3,13,5.5,13c0.9,0,1.8-0.3,2.5-0.8&#xD;&#xA;		c0.7,0.5,1.6,0.8,2.5,0.8C13,13,15,11,15,8.5S13,4,10.5,4z M2,8.5C2,6.6,3.5,5,5.5,5c0.6,0,1.2,0.2,1.7,0.5C6.5,6.3,6,7.3,6,8.5&#xD;&#xA;		s0.5,2.2,1.2,3C6.7,11.8,6.1,12,5.5,12C3.5,12,2,10.4,2,8.5z M10.5,12c-0.6,0-1.2-0.2-1.7-0.5c0.7-0.8,1.2-1.9,1.2-3&#xD;&#xA;		s-0.5-2.2-1.2-3C9.3,5.2,9.9,5,10.5,5C12.4,5,14,6.6,14,8.5S12.4,12,10.5,12z" />
</g>
</g>
<g transform="translate(324, 24)">
<polygon style="fill:#757575;" points="14,4 12,2 8,6 4,2 2,4 6,8 2,12 4,14 8,10 12,14 14,12 10,8 " xmlns="http://www.w3.org/2000/svg" />
</g>
<g transform="translate(144, 24)">
<g xmlns="http://www.w3.org/2000/svg">
	<g>
		<circle style="fill:#67BC6B;" cx="3" cy="8" r="1.5" />
		<path style="fill:#317D3D;" d="M3,7c0.6,0,1,0.4,1,1S3.6,9,3,9S2,8.6,2,8S2.4,7,3,7 M3,6C1.9,6,1,6.9,1,8c0,1.1,0.9,2,2,2&#xD;&#xA;			s2-0.9,2-2C5,6.9,4.1,6,3,6L3,6z" />
	</g>
</g>
<g xmlns="http://www.w3.org/2000/svg">
	<g>
		<circle style="fill:#67BC6B;" cx="8" cy="8" r="1.5" />
		<path style="fill:#317D3D;" d="M8,7c0.6,0,1,0.4,1,1S8.6,9,8,9S7,8.6,7,8S7.4,7,8,7 M8,6C6.9,6,6,6.9,6,8c0,1.1,0.9,2,2,2&#xD;&#xA;			s2-0.9,2-2C10,6.9,9.1,6,8,6L8,6z" />
	</g>
</g>
<g xmlns="http://www.w3.org/2000/svg">
	<g>
		<circle style="fill:#67BC6B;" cx="13" cy="8" r="1.5" />
		<path style="fill:#317D3D;" d="M13,7c0.6,0,1,0.4,1,1s-0.4,1-1,1s-1-0.4-1-1S12.4,7,13,7 M13,6c-1.1,0-2,0.9-2,2c0,1.1,0.9,2,2,2&#xD;&#xA;			s2-0.9,2-2C15,6.9,14.1,6,13,6L13,6z" />
	</g>
</g>
</g>
<g transform="translate(18, 24)">
<style type="text/css" xmlns="http://www.w3.org/2000/svg">
	.st023 {fill:#757575;}
</style>
<polygon id="_x34_" class="st023" points="6,3 6,2 2,2 2,3 4,5 2,7 2,8 6,8 6,7 3,7 5,5 3,3 5,3 " xmlns="http://www.w3.org/2000/svg" />
<path id="_x33_" class="st023" d="M13.7,8.5C13.5,8.3,13.1,8,12.5,8H10l-1,6h1l0.8-5h1.7c0.2,0,0.3,0.1,0.4,0.1C13,9.2,13,9.4,13,9.4&#xD;&#xA;	L12.2,14h1L14,9.6C14,9.2,14,8.8,13.7,8.5z" xmlns="http://www.w3.org/2000/svg" />
<rect id="_x32_" x="0.2" y="7.3" transform="matrix(0.7071 -0.7071 0.7071 0.7071 -3.3137 7.9999)" class="st023" width="15.6" height="1.4" xmlns="http://www.w3.org/2000/svg" />
</g>
<g transform="translate(36, 24)">
<g xmlns="http://www.w3.org/2000/svg">
	<path style="fill:#757575;" d="M7,11H6v-1l0,0c-0.4,0.7-1.1,1-2,1c-0.6,0-1.1-0.2-1.5-0.5S2,9.8,2,9.3c0-1.1,0.7-1.8,2.1-2L6,7.1&#xD;&#xA;		c0-1-0.4-1.5-1.3-1.5c-0.8,0-1.5,0.2-2.1,0.7v-1C3.2,5,3.9,4.8,4.8,4.8C6.2,4.8,7,5.5,7,7V11z M6,7.9L4.5,8.1&#xD;&#xA;		C4,8.1,3.6,8.2,3.4,8.4S3,8.8,3,9.2C3,9.5,3.1,9.8,3.4,10c0.2,0.2,0.5,0.3,0.9,0.3c0.5,0,0.9-0.2,1.2-0.5S6,9,6,8.5V7.9z" />
</g>
<polygon style="fill:#757575;" points="2,4 2,3 0,3 0,4 0,12 0,13 2,13 2,12 1,12 1,4 " xmlns="http://www.w3.org/2000/svg" />
<polygon style="fill:#757575;" points="7,4 7,3 9,3 9,4 9,12 9,13 7,13 7,12 8,12 8,4 " xmlns="http://www.w3.org/2000/svg" />
<g xmlns="http://www.w3.org/2000/svg">
	<path style="fill:#757575;" d="M11,10L11,10v1h-1V2h1v4l0,0c0.4-0.8,0.9-1.2,1.8-1.2c0.7,0,1.2,0.3,1.6,0.8C14.8,6.1,15,6.8,15,7.7&#xD;&#xA;		c0,1-0.2,1.8-0.7,2.4c-0.4,0.6-1,0.9-1.8,0.9C11.8,11,11.4,10.7,11,10z M10.9,7.6v0.8c0,0.5,0.1,0.9,0.4,1.3&#xD;&#xA;		c0.3,0.3,0.7,0.5,1.1,0.5c0.5,0,0.9-0.2,1.2-0.7s0.4-1.1,0.4-1.9c0-0.7-0.1-1.2-0.4-1.6c-0.3-0.4-0.7-0.6-1.1-0.6&#xD;&#xA;		c-0.5,0-0.9,0.2-1.2,0.6S10.9,7,10.9,7.6z" />
</g>
</g>
<g transform="translate(54, 24)">
<style type="text/css" xmlns="http://www.w3.org/2000/svg">
	.st025 {fill:#757575;}
	.st125 {fill:#44A147;}
	.st225 {fill:#67BC6B;}
	.st325 {fill:#317D3D;}
</style>
<rect x="4" y="9" class="st025" width="8.5" height="1" xmlns="http://www.w3.org/2000/svg" />
<path class="st125" d="M5,9L5,9c0-1.7,1.3-3,3-3s3,1.3,3,3l0,0h1l0,0c0-2.2-1.8-4-4-4S4,6.8,4,9l0,0H5z" xmlns="http://www.w3.org/2000/svg" />
<g xmlns="http://www.w3.org/2000/svg">
	<circle class="st225" cx="3.5" cy="9.5" r="2" />
	<path class="st325" d="M3.5,8C4.3,8,5,8.7,5,9.5S4.3,11,3.5,11S2,10.4,2,9.5S2.7,8,3.5,8 M3.5,7C2.1,7,1,8.2,1,9.5S2.1,12,3.5,12&#xD;&#xA;		S6,10.9,6,9.5S4.9,7,3.5,7L3.5,7z" />
</g>
<g xmlns="http://www.w3.org/2000/svg">
	<circle class="st225" cx="12.5" cy="9.5" r="2" />
	<path class="st325" d="M12.5,8C13.3,8,14,8.7,14,9.5S13.3,11,12.5,11S11,10.3,11,9.5S11.7,8,12.5,8 M12.5,7C11.1,7,10,8.1,10,9.5&#xD;&#xA;		s1.1,2.5,2.5,2.5S15,10.9,15,9.5S13.9,7,12.5,7L12.5,7z" />
</g>
</g>
<g transform="translate(90, 24)">
<path style="fill:#757575;" d="M8,2C4.7,2,2,4.7,2,8s2.7,6,6,6s6-2.7,6-6S11.3,2,8,2z M8,13c-2.8,0-5-2.2-5-5c0-2.8,2.2-5,5-5&#xD;&#xA;	c2.8,0,5,2.2,5,5C13,10.8,10.8,13,8,13z" xmlns="http://www.w3.org/2000/svg" />
</g>
<g transform="translate(72, 24)">
<g xmlns="http://www.w3.org/2000/svg">
	<path style="fill:#757575;" d="M5,11H4v-1l0,0c-0.4,0.7-1.1,1-2,1c-0.6,0-1.1-0.2-1.5-0.5S0,9.8,0,9.3c0-1.1,0.7-1.8,2.1-2L4,7.1&#xD;&#xA;		c0-1-0.4-1.5-1.3-1.5c-0.8,0-1.5,0.2-2.1,0.7v-1C1.2,5,1.9,4.8,2.8,4.8C4.2,4.8,5,5.5,5,7V11z M4,7.9L2.5,8.1&#xD;&#xA;		C2,8.1,1.6,8.2,1.4,8.4S1,8.8,1,9.2C1,9.5,1.1,9.8,1.4,10s0.5,0.3,0.9,0.3c0.5,0,0.9-0.2,1.2-0.5S4,9,4,8.5V7.9z" />
</g>
<g xmlns="http://www.w3.org/2000/svg">
	<path style="fill:#757575;" d="M16,10.6c-0.4,0.3-0.9,0.4-1.5,0.4c-0.8,0-1.4-0.3-1.8-0.8C12.2,9.7,12,8.8,12,8&#xD;&#xA;		c0-0.9,0.3-1.6,0.8-2.1c0.5-0.6,1.2-0.9,2-0.9c0.5,0,0.9,0.1,1.2,0.3v0.9c-0.4-0.3-0.8-0.4-1.3-0.4c-0.5,0-1,0.2-1.3,0.6&#xD;&#xA;		c-0.3,0.4-0.5,1-0.5,1.7c0,0.7,0.2,1.2,0.5,1.6c0.3,0.4,0.8,0.6,1.3,0.6c0.5,0,0.9-0.2,1.3-0.5V10.6z" />
</g>
<g xmlns="http://www.w3.org/2000/svg">
	<path style="fill:#44A147;" d="M7,10L7,10v1H6V2h1v4l0,0c0.4-0.8,0.9-1.2,1.8-1.2c0.7,0,1.2,0.3,1.6,0.8C10.8,6.1,11,6.8,11,7.7&#xD;&#xA;		c0,1-0.2,1.8-0.7,2.4c-0.4,0.6-1,0.9-1.8,0.9C7.8,11,7.4,10.7,7,10z M6.9,7.6v0.8C6.9,9,7,9.4,7.3,9.7c0.3,0.3,0.7,0.5,1.1,0.5&#xD;&#xA;		c0.5,0,0.9-0.2,1.2-0.7s0.4-1.1,0.4-1.9c0-0.7-0.1-1.2-0.4-1.6C9.4,5.8,9,5.6,8.6,5.6C8,5.6,7.6,5.8,7.3,6.2S6.9,7,6.9,7.6z" />
</g>
</g>
<g transform="translate(270, 24)">
<polygon style="fill:#757575;" points="3,13 6,3 7.5,3 10,11.3 12.5,3 14,3 11,13 9.5,13 6.8,5 4.5,13 " xmlns="http://www.w3.org/2000/svg" />
</g>
<g transform="translate(252, 24)">
<polygon style="fill:#757575;" points="2,3 2,2 0,2 0,3 0,11 0,12 2,12 2,11 1,11 1,3 " xmlns="http://www.w3.org/2000/svg" />
<polygon style="fill:#757575;" points="8,3 8,2 10,2 10,3 10,11 10,12 8,12 8,11 9,11 9,3 " xmlns="http://www.w3.org/2000/svg" />
<g xmlns="http://www.w3.org/2000/svg">
	<path style="fill:#757575;" d="M15,10.6c-0.4,0.3-0.9,0.4-1.5,0.4c-0.8,0-1.4-0.3-1.8-0.8C11.2,9.7,11,8.8,11,8&#xD;&#xA;		c0-0.9,0.3-1.6,0.8-2.1c0.5-0.6,1.2-0.9,2-0.9c0.5,0,0.9,0.1,1.2,0.3v0.9c-0.4-0.3-0.8-0.4-1.3-0.4c-0.5,0-1,0.2-1.3,0.6&#xD;&#xA;		c-0.3,0.4-0.5,1-0.5,1.7c0,0.7,0.2,1.2,0.5,1.6c0.3,0.4,0.8,0.6,1.3,0.6c0.5,0,0.9-0.2,1.3-0.5V10.6z" />
</g>
<g xmlns="http://www.w3.org/2000/svg">
	<path style="fill:#757575;" d="M4,10L4,10v1H3V2h1v4l0,0c0.4-0.8,0.9-1.2,1.8-1.2C6.5,4.8,7,5,7.4,5.6C7.8,6.1,8,6.8,8,7.7&#xD;&#xA;		c0,1-0.2,1.8-0.7,2.4c-0.4,0.6-1,0.9-1.8,0.9C4.8,11,4.4,10.7,4,10z M3.9,7.6v0.8C3.9,9,4,9.4,4.3,9.7c0.3,0.3,0.7,0.5,1.1,0.5&#xD;&#xA;		c0.5,0,0.9-0.2,1.2-0.7C7,9.1,7.1,8.5,7.1,7.7c0-0.7-0.1-1.2-0.4-1.6S6,5.6,5.6,5.6C5,5.6,4.6,5.8,4.3,6.2S3.9,7,3.9,7.6z" />
</g>
</g>
<g transform="translate(234, 24)">
<g xmlns="http://www.w3.org/2000/svg">
	<rect x="3" y="5" style="fill:#757575;" width="10" height="2" />
	<rect x="3" y="9" style="fill:#757575;" width="10" height="2" />
</g>
</g>
<g transform="translate(216, 24)">
<style type="text/css" xmlns="http://www.w3.org/2000/svg">
	.st031 {fill:#757575;}
</style>
<polygon id="_x34_" class="st031" points="5,6 5,5 1,5 1,6 3,8 1,10 1,11 5,11 5,10 2,10 4,8 2,6 " xmlns="http://www.w3.org/2000/svg" />
<path id="_x33_" class="st031" d="M9,1H8C7.4,1,7,1.4,7,2v4.8C7,6.9,7,7,6.9,7.1L6,8l0.9,0.9C7,9,7,9.1,7,9.2V14c0,0.6,0.4,1,1,1h1v-1&#xD;&#xA;	H8V9.2C8,9.1,8,9,7.9,8.9L7,8l0.9-0.9C8,7,8,6.9,8,6.8V2h1V1z" xmlns="http://www.w3.org/2000/svg" />
<polygon id="_x32_" class="st031" points="15,4 15,3 10,3 9,3 9,4 9,6 9,7 10,7 11,7 11,9 10,9 9,9 9,10 9,12 9,13 10,13 15,13 15,12 &#xD;&#xA;	10,12 10,10 11,10 12,10 15,10 15,9 12,9 12,7 15,7 15,6 12,6 11,6 10,6 10,4 " xmlns="http://www.w3.org/2000/svg" />
</g>
<g transform="translate(288, 24)">
<polygon style="fill:#757575;" points="4,13 10.5,8 4,3 5,2 13,8 5,14 " xmlns="http://www.w3.org/2000/svg" />
</g>
<g transform="translate(198, 24)">
<polygon style="fill:#757575;" points="3,12 9.5,7 3,2 4,1 12,7 4,13 " xmlns="http://www.w3.org/2000/svg" />
<polygon style="fill:#757575;" points="14,9 6,15 5,14 13,8 " xmlns="http://www.w3.org/2000/svg" />
</g>
<g transform="translate(306, 24)">
<style type="text/css" xmlns="http://www.w3.org/2000/svg">
	.st034 {fill:#757575;}
	.st134 {fill:#1177D7;}
</style>
<path id="_x34_" class="st034" d="M0,1.5v12C0,13.8,0.2,14,0.5,14h14c0.3,0,0.5-0.2,0.5-0.5v-12C15,1.2,14.8,1,14.5,1h-14&#xD;&#xA;	C0.2,1,0,1.2,0,1.5z M14,13H1V3h13V13z" xmlns="http://www.w3.org/2000/svg" />
<path id="_x33_" class="st134" d="M5.5,8.6H4.3L4.2,9.4h0.3V10H3V9.4h0.3l1.2-4h0.9l1.2,4h0.3V10H5.4V9.4h0.3L5.5,8.6z M4.9,6.3&#xD;&#xA;	L4.5,7.9h0.8L4.9,6.3z" xmlns="http://www.w3.org/2000/svg" />
<path id="_x32_" class="st134" d="M8,6.6L8,6.6c0.3,0,0.6-0.1,0.8-0.1C9.6,6.6,9.9,7,9.9,8v0.7c0,0.9-0.4,1.4-1.2,1.4&#xD;&#xA;	C8.5,10,8.3,10,8.2,10v0.7h0.4v0.6H7.1v-0.6h0.3V7.2H7V6.6H8z M8.2,9.4c0.1,0.1,0.2,0.1,0.4,0.1c0.4,0,0.6-0.1,0.6-0.8V8.1&#xD;&#xA;	c0-0.6-0.1-0.8-0.6-0.8c-0.1,0-0.3,0.1-0.4,0.1V9.4z" xmlns="http://www.w3.org/2000/svg" />
<path id="_x31_" class="st134" d="M11.9,9.4V10h-1.5V9.4h0.4V7.2h-0.4V6.6h1.1l0.1,0.2c0.4-0.2,0.6-0.3,1-0.3v0.8&#xD;&#xA;	c-0.2,0-0.8,0.1-0.9,0.2v1.9H11.9z" xmlns="http://www.w3.org/2000/svg" />
</g>
<g transform="translate(180, 24)">
<style type="text/css" xmlns="http://www.w3.org/2000/svg">
	.st035 {fill:#757575;}
	.st135 {fill:#1177D7;}
</style>
<path id="_x34_" class="st035" d="M0,1.5v12C0,13.8,0.2,14,0.5,14h14c0.3,0,0.5-0.2,0.5-0.5v-12C15,1.2,14.8,1,14.5,1h-14&#xD;&#xA;	C0.2,1,0,1.2,0,1.5z M14,13H1V3h13V13z" xmlns="http://www.w3.org/2000/svg" />
<path id="_x33_" class="st135" d="M4.5,8.6H3.4L3.2,9.4h0.4V10H2V9.4h0.3l1.1-4h0.9l1.2,4h0.3V10H4.4V9.4h0.3L4.5,8.6z M3.9,6.3&#xD;&#xA;	L3.5,7.9h0.8L3.9,6.3z" xmlns="http://www.w3.org/2000/svg" />
<path id="_x32_" class="st135" d="M7.6,7.2V6.7h1.2v2.7h0.4V10h-1L8.1,9.9C7.8,10,7.6,10,7.4,10c-0.8,0-1.2-0.4-1.2-1.3V7.2H5.9V6.6&#xD;&#xA;	h1.2v1.9c0,0.6,0.1,0.9,0.4,0.9c0.2,0,0.3-0.1,0.4-0.1V7.2C8,7.2,7.6,7.2,7.6,7.2z" xmlns="http://www.w3.org/2000/svg" />
<path id="_x31_" class="st135" d="M12.1,9.6c0,0.6-0.1,1.4-0.9,1.6c-0.4,0.1-0.9,0.1-1.2,0.1H9.7v-0.6c0.1,0,0.9,0.1,1.3-0.1&#xD;&#xA;	c0.2-0.1,0.3-0.4,0.3-0.7C11.1,10,11,10,10.7,10C10,10,9.5,9.6,9.5,8.7V8c0-0.9,0.4-1.4,1.1-1.4c0.1,0,0.4,0.1,0.7,0.2l0.1-0.1h1&#xD;&#xA;	v0.6h-0.4V9.6z M11.3,7.3c-0.1-0.1-0.2-0.1-0.4-0.1c-0.4,0-0.6,0.2-0.6,0.8v0.6c0,0.6,0.1,0.8,0.6,0.8c0.1,0,0.3-0.1,0.4-0.1V7.3z" xmlns="http://www.w3.org/2000/svg" />
</g>
<g transform="translate(162, 24)">
<style type="text/css" xmlns="http://www.w3.org/2000/svg">
	.st036 {fill:#757575;}
	.st136 {opacity:0.5;}
</style>
<path id="_x31_" class="st036" d="M0,1.5v12C0,13.8,0.2,14,0.5,14h14c0.3,0,0.5-0.2,0.5-0.5v-12C15,1.2,14.8,1,14.5,1h-14&#xD;&#xA;	C0.2,1,0,1.2,0,1.5z M14,13H1V3h13V13z" xmlns="http://www.w3.org/2000/svg" />
<g id="_x30_" class="st136" xmlns="http://www.w3.org/2000/svg">
	<path id="_x32_" class="st036" d="M4,12H2v-2h2V12z M7,10H5v2h2V10z M10,10H8v2h2V10z M13,10h-2v2h2V10z M10,4H8v2h2V4z M13,4h-2v2h2&#xD;&#xA;		V4z M13,7h-2v2h2V7z M7,7H5v2h2V7z M10,7H8v2h2V7z M4,7H2v2h2V7z M7,4H5v2h2V4z M4,4H2v2h2V4z" />
</g>
</g>
<g transform="translate(126, 24)">
<style type="text/css" xmlns="http://www.w3.org/2000/svg">
	.st037 {fill:#757575;}
	.st137 {fill:#1177D7;}
</style>
<path id="_x34_" class="st037" d="M0,1.5v12C0,13.8,0.2,14,0.5,14h14c0.3,0,0.5-0.2,0.5-0.5v-12C15,1.2,14.8,1,14.5,1h-14&#xD;&#xA;	C0.2,1,0,1.2,0,1.5z M14,13H1V3h13V13z" xmlns="http://www.w3.org/2000/svg" />
<path id="_x33_" class="st137" d="M3,10V9.4h0.4V6H3V5.4h1.8c1.2,0,1.7,0.5,1.7,1.8v0.9c0,1.4-0.6,1.9-1.7,1.9H3z M4.8,9.3&#xD;&#xA;	c0.7,0,0.9-0.4,0.9-1.2V7.2C5.7,6.3,5.3,6,4.8,6H4.2v3.3H4.8L4.8,9.3z" xmlns="http://www.w3.org/2000/svg" />
<path id="_x32_" class="st137" d="M7.7,8.6c0,0.8,0.3,0.9,0.7,0.9c0.1,0,0.6-0.1,0.8-0.1v0.6C9,10,8.6,10.1,8.3,10.1&#xD;&#xA;	c-1.1,0-1.4-0.4-1.4-1.7c0-1.4,0.5-1.8,1.3-1.8c0.8,0,1.2,0.3,1.2,1.4c0,0.2,0,0.4-0.1,0.6H7.7z M8.6,8c0-0.1,0-0.1,0-0.2&#xD;&#xA;	c0-0.4-0.1-0.6-0.4-0.6C7.9,7.2,7.8,7.4,7.8,8H8.6z" xmlns="http://www.w3.org/2000/svg" />
<path id="_x31_" class="st137" d="M11.4,7.3c-0.1,0-0.1-0.1-0.2-0.1c-0.3,0-0.5,0.2-0.6,0.8v0.6c0,0.6,0.2,0.8,0.6,0.8&#xD;&#xA;	c0.3,0,0.6-0.1,0.9-0.1v0.6c-0.2,0.1-0.6,0.1-0.9,0.1c-1.2,0-1.3-0.9-1.3-1.3V8c0-0.4,0.1-1.3,1.3-1.3c0.4,0,0.7,0.1,0.9,0.2v1h-0.7&#xD;&#xA;	C11.4,7.8,11.4,7.3,11.4,7.3z" xmlns="http://www.w3.org/2000/svg" />
</g>
<g transform="translate(108, 24)">
<style type="text/css" xmlns="http://www.w3.org/2000/svg">
	.st038 {fill:#727272;}
	.st138 {fill:#D11C1C;}
	.st238 {fill:#1177D7;}
</style>
<path id="_x31_1" class="st038" d="M0,1.5v12C0,13.8,0.2,14,0.5,14h14c0.3,0,0.5-0.2,0.5-0.5v-12C15,1.2,14.8,1,14.5,1h-14&#xD;&#xA;	C0.2,1,0,1.2,0,1.5z M14,13H1V3h13V13z" xmlns="http://www.w3.org/2000/svg" />
<rect id="_x31_0" x="5" y="4" class="st138" width="2" height="2" xmlns="http://www.w3.org/2000/svg" />
<rect id="_x39_" x="8" y="4" class="st238" width="5" height="2" xmlns="http://www.w3.org/2000/svg" />
<rect id="_x37_" x="2" y="7" class="st238" width="11" height="2" xmlns="http://www.w3.org/2000/svg" />
<rect id="_x31_" x="2" y="10" class="st238" width="8" height="2" xmlns="http://www.w3.org/2000/svg" />
</g>
<g transform="translate(48, 0)">
<style type="text/css" xmlns="http://www.w3.org/2000/svg">
	.st039 {fill:#757575;}
	.st139 {fill:#1177D7;}
	.st239 {fill:#D11C1C;}
	.st339 {opacity:0.5;}
</style>
<path id="_x36_" class="st039" d="M0,1.5v12C0,13.8,0.2,14,0.5,14h14c0.3,0,0.5-0.2,0.5-0.5v-12C15,1.2,14.8,1,14.5,1h-14&#xD;&#xA;	C0.2,1,0,1.2,0,1.5z M14,13H1V3h13V13z" xmlns="http://www.w3.org/2000/svg" />
<rect id="_x33_" x="5" y="7" class="st139" width="8" height="2" xmlns="http://www.w3.org/2000/svg" />
<rect id="_x32_" x="2" y="7" class="st239" width="2" height="2" xmlns="http://www.w3.org/2000/svg" />
<g id="_x31_" class="st339" xmlns="http://www.w3.org/2000/svg">
	<rect id="_x37_" x="2" y="4" class="st039" width="2" height="2" />
	<rect id="_x36__00000024691286365179230490000017055398860295594880_" x="5" y="4" class="st039" width="2" height="2" />
	<rect id="_x35__00000170264064011686313280000012131305319902720429_" x="8" y="4" class="st039" width="2" height="2" />
	<rect id="_x34__00000082328819720760790320000003061304894810955451_" x="11" y="4" class="st039" width="2" height="2" />
	<rect id="_x33__00000098919739520923360780000018360617776223724170_" x="2" y="10" class="st039" width="2" height="2" />
	<rect id="_x32__00000049912129911237343890000000330418267311353531_" x="5" y="10" class="st039" width="2" height="2" />
	<rect id="_x31__00000023988788144704625150000005073425161305139356_" x="8" y="10" class="st039" width="2" height="2" />
	<rect id="_x30_" x="11" y="10" class="st039" width="2" height="2" />
</g>
</g>
<g transform="translate(432, 24)">
<style type="text/css" xmlns="http://www.w3.org/2000/svg">
	.st040 {fill:#757575;}
	.st140 {fill:#D11C1C;}
	.st240 {opacity:0.5;}
</style>
<path id="_x31_4" class="st040" d="M0,1.5v12C0,13.8,0.2,14,0.5,14h14c0.3,0,0.5-0.2,0.5-0.5v-12C15,1.2,14.8,1,14.5,1h-14&#xD;&#xA;	C0.2,1,0,1.2,0,1.5z M14,13H1V3h13V13z" xmlns="http://www.w3.org/2000/svg" />
<rect id="_x31_3" x="2" y="4" class="st140" width="2" height="2" xmlns="http://www.w3.org/2000/svg" />
<g id="_x31_" class="st240" xmlns="http://www.w3.org/2000/svg">
	<rect id="_x31_2" x="5" y="4" class="st040" width="2" height="2" />
	<rect id="_x31_1" x="8" y="4" class="st040" width="2" height="2" />
	<rect id="_x31_0" x="11" y="4" class="st040" width="2" height="2" />
	<rect id="_x39_" x="2" y="7" class="st040" width="2" height="2" />
	<rect id="_x38_" x="5" y="7" class="st040" width="2" height="2" />
	<rect id="_x37_" x="8" y="7" class="st040" width="2" height="2" />
	<rect id="_x36_" x="11" y="7" class="st040" width="2" height="2" />
	<rect id="_x35_" x="2" y="10" class="st040" width="2" height="2" />
	<rect id="_x34_" x="5" y="10" class="st040" width="2" height="2" />
	<rect id="_x33_" x="8" y="10" class="st040" width="2" height="2" />
	<rect id="_x32_" x="11" y="10" class="st040" width="2" height="2" />
</g>
</g>
<g transform="translate(162, 42)">
<style type="text/css" xmlns="http://www.w3.org/2000/svg">
	.st041 {fill:#757575;}
	.st141 {fill:#1177D7;}
</style>
<path id="_x34_" class="st041" d="M0,1.5v12C0,13.8,0.2,14,0.5,14h14c0.3,0,0.5-0.2,0.5-0.5v-12C15,1.2,14.8,1,14.5,1h-14&#xD;&#xA;	C0.2,1,0,1.2,0,1.5z M14,13H1V3h13V13z" xmlns="http://www.w3.org/2000/svg" />
<path id="_x33_" class="st141" d="M6.6,6.6H5.8V6.1h-1v1.3h1.2v0.7H4.8v1.3h0.4V10H3.6V9.4H4V6H3.6V5.4h3V6.6z" xmlns="http://www.w3.org/2000/svg" />
<path id="_x32_" class="st141" d="M7.4,8.6c0,0.8,0.3,0.9,0.7,0.9c0.1,0,0.6-0.1,0.8-0.1v0.6c-0.2,0.1-0.6,0.1-0.9,0.1&#xD;&#xA;	c-1.1,0-1.4-0.4-1.4-1.7c0-1.4,0.5-1.8,1.3-1.8c0.8,0,1.2,0.3,1.2,1.4c0,0.2,0,0.4-0.1,0.6H7.4z M8.4,8c0-0.1,0-0.1,0-0.2&#xD;&#xA;	c0-0.4-0.1-0.6-0.4-0.6C7.6,7.2,7.5,7.4,7.5,8H8.4z" xmlns="http://www.w3.org/2000/svg" />
<path id="_x31_" class="st141" d="M9.7,6H9.3V5.4h1.2v1.3c0.1-0.1,0.3-0.1,0.6-0.1c0.9,0,1.2,0.7,1.2,1.3v0.7c0,0.6-0.1,1.4-1.3,1.4&#xD;&#xA;	c-0.2,0-0.7,0-1.2-0.1V6z M10.5,9.4c0.1,0.1,0.3,0.1,0.4,0.1c0.4,0,0.6-0.2,0.6-0.9V8.1c0-0.7-0.1-0.8-0.6-0.8&#xD;&#xA;	c-0.2,0-0.3,0.1-0.4,0.1V9.4z" xmlns="http://www.w3.org/2000/svg" />
</g>
<g transform="translate(390, 0)">
<style type="text/css" xmlns="http://www.w3.org/2000/svg">
	.st042 {fill:#757575;}
	.st142 {fill:#1177D7;}
</style>
<path id="_x34_" class="st042" d="M0,1.5v12C0,13.8,0.2,14,0.5,14h14c0.3,0,0.5-0.2,0.5-0.5v-12C15,1.2,14.8,1,14.5,1h-14&#xD;&#xA;	C0.2,1,0,1.2,0,1.5z M14,13H1V3h13V13z" xmlns="http://www.w3.org/2000/svg" />
<path id="_x33_" class="st142" d="M5,8.8C5,9.9,3.9,10,3,10V9.4h0.2c0.5,0,1-0.1,1-0.6V6.1H3.8V5.5h1.6v0.6H5V8.8z" xmlns="http://www.w3.org/2000/svg" />
<path id="_x32_" class="st142" d="M7.4,10L7.4,9.9C7.1,10,6.8,10,6.7,10c-1,0-1.2-0.7-1.2-1.4V8c0-0.4,0.1-1.3,1.3-1.3&#xD;&#xA;	c0.4,0,0.8,0.1,1.2,0.2v2.5h0.4V10H7.4z M6.3,8.6c0,0.6,0.1,0.8,0.6,0.8c0.1,0,0.2-0.1,0.3-0.1v-2C7.2,7.3,7.1,7.3,6.9,7.3&#xD;&#xA;	c-0.4,0-0.6,0.2-0.6,0.9V8.6z" xmlns="http://www.w3.org/2000/svg" />
<path id="_x31_" class="st142" d="M10.9,8.1c0-0.5-0.1-0.8-0.4-0.8c-0.1,0-0.4,0.1-0.4,0.1v2.1h0.4V10H8.9V9.4h0.4V7.3H8.8V6.7h1&#xD;&#xA;	l0.1,0.1c0.2-0.1,0.6-0.2,0.8-0.2c0.8,0,1,0.3,1,1.2v1.4H12V10h-1.1L10.9,8.1L10.9,8.1z" xmlns="http://www.w3.org/2000/svg" />
</g>
<g transform="translate(318, 0)">
<style type="text/css" xmlns="http://www.w3.org/2000/svg">
	.st043 {fill:#757575;}
	.st143 {fill:#1177D7;}
</style>
<path id="_x34_" class="st043" d="M0,1.5v12C0,13.8,0.2,14,0.5,14h14c0.3,0,0.5-0.2,0.5-0.5v-12C15,1.2,14.8,1,14.5,1h-14&#xD;&#xA;	C0.2,1,0,1.2,0,1.5z M14,13H1V3h13V13z" xmlns="http://www.w3.org/2000/svg" />
<path id="_x33_" class="st143" d="M5.4,8.9c0,1.1-0.9,1.2-1.8,1.2V9.4h0.2c0.5,0,0.9-0.1,0.9-0.6V6H4.2V5.4h1.6V6H5.4V8.9z" xmlns="http://www.w3.org/2000/svg" />
<path id="_x32_" class="st143" d="M7.7,7.2V6.7h1.2v2.7h0.4V10h-1L8.2,9.9C7.9,10,7.7,10,7.5,10c-0.8,0-1.2-0.4-1.2-1.3V7.2H6V6.6h1.2&#xD;&#xA;	v1.9c0,0.6,0.1,0.9,0.4,0.9c0.2,0,0.3-0.1,0.4-0.1V7.2C8.1,7.2,7.7,7.2,7.7,7.2z" xmlns="http://www.w3.org/2000/svg" />
<path id="_x31_" class="st143" d="M9.4,5.4h1.2v4H11V10H9.5V9.4h0.4V6H9.5C9.5,6,9.5,5.4,9.4,5.4z" xmlns="http://www.w3.org/2000/svg" />
</g>
<g transform="translate(300, 0)">
<style type="text/css" xmlns="http://www.w3.org/2000/svg">
	.st044 {fill:#757575;}
	.st144 {fill:#1177D7;}
</style>
<path id="_x34_" class="st044" d="M0,1.5v12C0,13.8,0.2,14,0.5,14h14c0.3,0,0.5-0.2,0.5-0.5v-12C15,1.2,14.8,1,14.5,1h-14&#xD;&#xA;	C0.2,1,0,1.2,0,1.5z M14,13H1V3h13V13z" xmlns="http://www.w3.org/2000/svg" />
<path id="_x33_" class="st144" d="M4.7,8.9c0,1.1-1,1.2-1.8,1.2V9.4H3c0.5,0,0.8-0.1,0.8-0.6V6H3.5V5.4h1.6V6H4.7V8.9z" xmlns="http://www.w3.org/2000/svg" />
<path id="_x32_" class="st144" d="M6.9,7.2V6.7h1.2v2.7h0.4V10h-1L7.4,9.9C7.2,10,6.9,10,6.8,10c-0.8,0-1.2-0.4-1.2-1.3V7.2H5.2V6.6&#xD;&#xA;	h1.2v1.9c0,0.6,0.1,0.9,0.4,0.9c0.2,0,0.3-0.1,0.4-0.1V7.2C7.3,7.2,6.9,7.2,6.9,7.2z" xmlns="http://www.w3.org/2000/svg" />
<path id="_x31_" class="st144" d="M10.9,8c0-0.5-0.1-0.8-0.4-0.8c-0.1,0-0.4,0.1-0.4,0.1v2.1h0.4V10H8.9V9.4h0.4V7.2H8.8V6.6h1&#xD;&#xA;	l0.1,0.1c0.2-0.1,0.6-0.2,0.8-0.2c0.8,0,1,0.4,1,1.3v1.5H12V10h-1.1L10.9,8L10.9,8z" xmlns="http://www.w3.org/2000/svg" />
</g>
<g transform="translate(282, 0)">
<style type="text/css" xmlns="http://www.w3.org/2000/svg">
	.st045 {fill:#757575;}
	.st145 {fill:#1177D7;}
	.st245 {fill:#727272;}
</style>
<path id="_x34_" class="st045" d="M8.3,14H0.5C0.2,14,0,13.8,0,13.5v-12C0,1.2,0.2,1,0.5,1h14C14.8,1,15,1.2,15,1.5V11h-1V3H1v10h6&#xD;&#xA;	L8.3,14z" xmlns="http://www.w3.org/2000/svg" />
<polygon id="_x33_" class="st145" points="8,13 12,10 12,12 16,12 16,14 12,14 12,16 " xmlns="http://www.w3.org/2000/svg" />
<path id="_x32_" class="st045" d="M6.3,7.8H5.6V7.1h0.8c0.3,0,0.6-0.2,0.6-0.7c0-0.7-0.3-0.8-0.8-0.8c-0.1,0-0.5,0-0.9,0.2V5.1&#xD;&#xA;	C5.6,5,6,5,6.1,5C7,5,7.7,5.1,7.7,6.4c0,0.4-0.2,0.8-0.6,1l0,0c0.4,0.2,0.7,0.6,0.7,1.1c0,1.4-0.7,1.5-1.7,1.5&#xD;&#xA;	C5.9,10.1,5.5,10,5,9.9V9.2c0.6,0.1,0.9,0.2,1.2,0.2c0.4,0,0.8-0.1,0.8-0.8C6.9,8.1,6.8,7.8,6.3,7.8z" xmlns="http://www.w3.org/2000/svg" />
<path id="_x31_" class="st245" d="M11,9.3V10H8.5V9.3h0.8V6l-1,0.5V5.7L9.4,5h0.8v4.2L11,9.3L11,9.3z" xmlns="http://www.w3.org/2000/svg" />
</g>
<g transform="translate(264, 0)">
<style type="text/css" xmlns="http://www.w3.org/2000/svg">
	.st046 {fill:#757575;}
	.st146 {fill:#1177D7;}
</style>
<path id="_x33_" class="st046" d="M8.4,14H0.5C0.2,14,0,13.8,0,13.5v-12C0,1.2,0.2,1,0.5,1h14C14.8,1,15,1.2,15,1.5v9.6h-1V3H1v10h6&#xD;&#xA;	L8.4,14z" xmlns="http://www.w3.org/2000/svg" />
<polygon id="_x32_" class="st146" points="8,13 12,10 12,12 16,12 16,14 12,14 12,16 " xmlns="http://www.w3.org/2000/svg" />
<path id="_x31_" class="st046" d="M6.1,5H9v0.7L7.1,10H6.2l1.9-4.2H6.8v0.6H6C6.1,6.3,6.1,5,6.1,5z" xmlns="http://www.w3.org/2000/svg" />
</g>
<g transform="translate(246, 0)">
<style type="text/css" xmlns="http://www.w3.org/2000/svg">
	.st047 {fill:#757575;}
	.st147 {fill:#1177D7;}
	.st247 {fill:#727272;}
</style>
<path id="_x34_" class="st047" d="M8.3,14H0.5C0.2,14,0,13.8,0,13.5v-12C0,1.2,0.2,1,0.5,1h14C14.8,1,15,1.2,15,1.5V11h-1V3H1v10h6&#xD;&#xA;	L8.3,14z" xmlns="http://www.w3.org/2000/svg" />
<polygon id="_x33_" class="st147" points="8,13 12,10 12,12 16,12 16,14 12,14 12,16 " xmlns="http://www.w3.org/2000/svg" />
<path id="_x32_" class="st047" d="M7.4,9.3V10H4.9V9.3h0.8V6l-1,0.5V5.7L5.9,5h0.8v4.2L7.4,9.3L7.4,9.3z" xmlns="http://www.w3.org/2000/svg" />
<path id="_x31_" class="st247" d="M7.8,10.8c0.6,0,0.9-0.1,1.1-0.9L8,7.1H7.7V6.4h1.5v0.7H8.9l0.4,1.8l0.4-1.8H9.5V6.4h1.6v0.7h-0.4&#xD;&#xA;	L9.8,9.8c-0.4,1.1-0.6,1.6-2.1,1.6C7.8,11.4,7.8,10.8,7.8,10.8z" xmlns="http://www.w3.org/2000/svg" />
</g>
<g transform="translate(228, 0)">
<style type="text/css" xmlns="http://www.w3.org/2000/svg">
	.st048 {fill:#757575;}
	.st148 {fill:#1177D7;}
	.st248 {fill:#D11C1C;}
</style>
<path id="_x31_1" class="st048" d="M0,1.5v12C0,13.8,0.2,14,0.5,14h14c0.3,0,0.5-0.2,0.5-0.5v-12C15,1.2,14.8,1,14.5,1h-14&#xD;&#xA;	C0.2,1,0,1.2,0,1.5z M14,13H1V3h13V13z" xmlns="http://www.w3.org/2000/svg" />
<rect id="_x31_0" x="5" y="4" class="st148" width="8" height="2" xmlns="http://www.w3.org/2000/svg" />
<rect id="_x37_" x="2" y="7" class="st148" width="11" height="2" xmlns="http://www.w3.org/2000/svg" />
<rect id="_x33_" x="2" y="10" class="st148" width="5" height="2" xmlns="http://www.w3.org/2000/svg" />
<rect id="_x31_" x="8" y="10" class="st248" width="2" height="2" xmlns="http://www.w3.org/2000/svg" />
</g>
<g transform="translate(210, 0)">
<style type="text/css" xmlns="http://www.w3.org/2000/svg">
	.st049 {fill:#757575;}
	.st149 {fill:#D11C1C;}
	.st249 {fill:#1177D7;}
	.st349 {opacity:0.5;}
</style>
<path id="_x31_3" class="st049" d="M0,1.5v12C0,13.8,0.2,14,0.5,14h14c0.3,0,0.5-0.2,0.5-0.5v-12C15,1.2,14.8,1,14.5,1h-14&#xD;&#xA;	C0.2,1,0,1.2,0,1.5z M14,13H1V3h13V13z" xmlns="http://www.w3.org/2000/svg" />
<rect id="_x31_1" x="11" y="7" class="st149" width="2" height="2" xmlns="http://www.w3.org/2000/svg" />
<rect id="_x39_" x="2" y="7" class="st249" width="8" height="2" xmlns="http://www.w3.org/2000/svg" />
<g id="_x30_" class="st349" xmlns="http://www.w3.org/2000/svg">
	<rect id="_x38_" x="2" y="4" class="st049" width="2" height="2" />
	<rect id="_x37_" x="5" y="4" class="st049" width="2" height="2" />
	<rect id="_x36_" x="8" y="4" class="st049" width="2" height="2" />
	<rect id="_x35_" x="11" y="4" class="st049" width="2" height="2" />
	<rect id="_x34_" x="2" y="10" class="st049" width="2" height="2" />
	<rect id="_x33_" x="5" y="10" class="st049" width="2" height="2" />
	<rect id="_x32_" x="8" y="10" class="st049" width="2" height="2" />
	<rect id="_x31_" x="11" y="10" class="st049" width="2" height="2" />
</g>
</g>
<g transform="translate(192, 0)">
<style type="text/css" xmlns="http://www.w3.org/2000/svg">
	.st050 {fill:#757575;}
	.st150 {opacity:0.5;}
	.st250 {fill:#D11C1C;}
</style>
<path id="_x31_3" class="st050" d="M0,1.5v12C0,13.8,0.2,14,0.5,14h14c0.3,0,0.5-0.2,0.5-0.5v-12C15,1.2,14.8,1,14.5,1h-14&#xD;&#xA;	C0.2,1,0,1.2,0,1.5z M14,13H1V3h13V13z" xmlns="http://www.w3.org/2000/svg" />
<g id="_x31_" class="st150" xmlns="http://www.w3.org/2000/svg">
	<rect id="_x31_2" x="2" y="4" class="st050" width="2" height="2" />
	<rect id="_x31_1" x="5" y="4" class="st050" width="2" height="2" />
	<rect id="_x31_0" x="8" y="4" class="st050" width="2" height="2" />
	<rect id="_x39_" x="11" y="4" class="st050" width="2" height="2" />
	<rect id="_x38_" x="2" y="7" class="st050" width="2" height="2" />
	<rect id="_x37_" x="5" y="7" class="st050" width="2" height="2" />
	<rect id="_x36_" x="8" y="7" class="st050" width="2" height="2" />
	<rect id="_x35_" x="11" y="7" class="st050" width="2" height="2" />
	<rect id="_x34_" x="2" y="10" class="st050" width="2" height="2" />
	<rect id="_x33_" x="5" y="10" class="st050" width="2" height="2" />
	<rect id="_x32_" x="8" y="10" class="st050" width="2" height="2" />
</g>
<rect id="_x30_" x="11" y="10" class="st250" width="2" height="2" xmlns="http://www.w3.org/2000/svg" />
</g>
<g transform="translate(174, 0)">
<style type="text/css" xmlns="http://www.w3.org/2000/svg">
	.st051 {fill:#757575;}
	.st151 {fill:#1177D7;}
</style>
<path id="_x34_" class="st051" d="M0,1.5v12C0,13.8,0.2,14,0.5,14h14c0.3,0,0.5-0.2,0.5-0.5v-12C15,1.2,14.8,1,14.5,1h-14&#xD;&#xA;	C0.2,1,0,1.2,0,1.5z M14,13H1V3h13V13z" xmlns="http://www.w3.org/2000/svg" />
<path id="_x33_" class="st151" d="M3.7,5.4l0.9,2.8l0.9-2.8h1.4V6H6.5l0.2,3.4h0.4V10H5.5V9.4h0.4L5.8,6.9L4.9,9.4H4.2L3.3,7L3.2,9.4&#xD;&#xA;	h0.4V10H2V9.4h0.4L2.7,6H2.2V5.4H3.7z" xmlns="http://www.w3.org/2000/svg" />
<path id="_x32_" class="st151" d="M9.3,10L9.2,9.9C8.9,10,8.6,10,8.6,10c-1,0-1.2-0.8-1.2-1.4V8c0-0.5,0.1-1.3,1.3-1.3&#xD;&#xA;	c0.4,0,0.8,0.1,1.2,0.2v2.5h0.4V10H9.3z M8.2,8.6c0,0.6,0.1,0.8,0.6,0.8c0.1,0,0.2-0.1,0.4-0.1V7.3C9.1,7.2,9,7.2,8.8,7.2&#xD;&#xA;	c-0.4,0-0.6,0.2-0.6,0.9V8.6z" xmlns="http://www.w3.org/2000/svg" />
<path id="_x31_" class="st151" d="M12.1,9.4V10h-1.5V9.4H11V7.2h-0.4V6.6h1.1l0.1,0.2c0.4-0.2,0.6-0.3,1-0.3v0.8&#xD;&#xA;	c-0.2,0-0.8,0.1-0.9,0.2v1.9H12.1z" xmlns="http://www.w3.org/2000/svg" />
</g>
<g transform="translate(156, 0)">
<style type="text/css" xmlns="http://www.w3.org/2000/svg">
	.st052 {fill:#757575;}
	.st152 {fill:#1177D7;}
</style>
<path id="_x34_" class="st052" d="M0,1.5v12C0,13.8,0.2,14,0.5,14h14c0.3,0,0.5-0.2,0.5-0.5v-12C15,1.2,14.8,1,14.5,1h-14&#xD;&#xA;	C0.2,1,0,1.2,0,1.5z M14,13H1V3h13V13z" xmlns="http://www.w3.org/2000/svg" />
<path id="_x33_" class="st152" d="M3.7,5.4l0.9,2.8l0.9-2.8h1.4V6H6.5l0.2,3.4h0.4V10H5.4V9.4h0.4L5.7,6.9L4.8,9.4H4.2L3.3,7L3.2,9.4&#xD;&#xA;	h0.4V10H2V9.4h0.4L2.6,6H2.2V5.4H3.7z" xmlns="http://www.w3.org/2000/svg" />
<path id="_x32_" class="st152" d="M9.3,10L9.2,9.9C8.9,10,8.6,10,8.6,10c-1,0-1.2-0.8-1.2-1.4V8c0-0.5,0.1-1.3,1.3-1.3&#xD;&#xA;	c0.4,0,0.8,0.1,1.2,0.2v2.5h0.4V10H9.3z M8.2,8.6c0,0.6,0.1,0.8,0.6,0.8c0.1,0,0.2-0.1,0.4-0.1V7.3C9,7.2,8.9,7.2,8.8,7.2&#xD;&#xA;	c-0.4,0-0.6,0.2-0.6,0.9V8.6z" xmlns="http://www.w3.org/2000/svg" />
<path id="_x31_" class="st152" d="M10.6,10.8c0.6,0,0.9-0.1,1.1-0.8l-0.9-2.7h-0.3V6.7h1.4v0.6h-0.3L12,8.9l0.4-1.6h-0.3V6.7h1.4v0.6&#xD;&#xA;	h-0.3l-0.8,2.5c-0.3,1.1-0.6,1.5-1.9,1.6C10.5,11.4,10.5,10.8,10.6,10.8z" xmlns="http://www.w3.org/2000/svg" />
</g>
<g transform="translate(138, 0)">
<style type="text/css" xmlns="http://www.w3.org/2000/svg">
	.st053 {fill:#757575;}
	.st153 {fill:#1177D7;}
</style>
<path id="_x34_" class="st053" d="M7,14H0.5C0.2,14,0,13.8,0,13.5v-12C0,1.2,0.2,1,0.5,1h14C14.8,1,15,1.2,15,1.5v9.8l-1-0.8V3H1v10h6&#xD;&#xA;	V14z" xmlns="http://www.w3.org/2000/svg" />
<polygon id="_x33_" class="st153" points="12,16 12,14 8,14 8,12 12,12 12,10 16,13 " xmlns="http://www.w3.org/2000/svg" />
<path id="_x32_" class="st053" d="M6.3,7.8H5.6V7.1h0.8c0.3,0,0.6-0.2,0.6-0.7c0-0.7-0.3-0.8-0.8-0.8c-0.1,0-0.5,0-0.9,0.2V5.2&#xD;&#xA;	C5.6,5,6,5,6.1,5C7,5,7.7,5.1,7.7,6.5c0,0.4-0.2,0.8-0.6,1l0,0c0.4,0.2,0.7,0.6,0.7,1.1c0,1.4-0.7,1.5-1.7,1.5&#xD;&#xA;	c-0.2,0-0.7-0.1-1.2-0.2V9.2c0.6,0.1,0.9,0.2,1.2,0.2c0.4,0,0.8-0.1,0.8-0.8C7,8.1,6.8,7.8,6.3,7.8z" xmlns="http://www.w3.org/2000/svg" />
<path id="_x31_" class="st053" d="M11,9.3V10H8.5V9.3h0.8V6l-1,0.5V5.7L9.4,5h0.8v4.2L11,9.3L11,9.3z" xmlns="http://www.w3.org/2000/svg" />
</g>
<g transform="translate(120, 0)">
<style type="text/css" xmlns="http://www.w3.org/2000/svg">
	.st054 {fill:#757575;}
	.st154 {fill:#1177D7;}
</style>
<path id="_x33_" class="st054" d="M7,14H0.5C0.2,14,0,13.8,0,13.5v-12C0,1.2,0.2,1,0.5,1h14C14.8,1,15,1.2,15,1.5v9.8l-1-0.8V3H1v10h6&#xD;&#xA;	V14z" xmlns="http://www.w3.org/2000/svg" />
<polygon id="_x32_" class="st154" points="12,16 12,14 8,14 8,12 12,12 12,10 16,13 " xmlns="http://www.w3.org/2000/svg" />
<path id="_x31_" class="st054" d="M6.1,5H9v0.7L7.1,10H6.2l1.9-4.2H6.8v0.6H6C6.1,6.3,6.1,5,6.1,5z" xmlns="http://www.w3.org/2000/svg" />
</g>
<g transform="translate(102, 0)">
<style type="text/css" xmlns="http://www.w3.org/2000/svg">
	.st055 {fill:#757575;}
	.st155 {fill:#1177D7;}
</style>
<path id="_x34_" class="st055" d="M7,14H0.5C0.2,14,0,13.8,0,13.5v-12C0,1.2,0.2,1,0.5,1h14C14.8,1,15,1.2,15,1.5v9.8l-1-0.8V3H1v10h6&#xD;&#xA;	V14z" xmlns="http://www.w3.org/2000/svg" />
<polygon id="_x33_" class="st155" points="12,16 12,14 8,14 8,12 12,12 12,10 16,13 " xmlns="http://www.w3.org/2000/svg" />
<path id="_x32_" class="st055" d="M7.4,9.3V10H4.9V9.3h0.8V6l-1,0.5V5.7L5.9,5h0.8v4.2L7.4,9.3L7.4,9.3z" xmlns="http://www.w3.org/2000/svg" />
<path id="_x31_" class="st055" d="M7.8,10.8c0.6,0,0.9-0.1,1.1-0.9L8,7.1H7.7V6.4h1.5v0.7H8.9l0.4,1.8l0.4-1.8H9.5V6.4h1.6v0.7h-0.4&#xD;&#xA;	L9.8,9.8c-0.4,1.1-0.6,1.6-2.1,1.6C7.8,11.4,7.8,10.8,7.8,10.8z" xmlns="http://www.w3.org/2000/svg" />
</g>
<g transform="translate(84, 0)">
<style type="text/css" xmlns="http://www.w3.org/2000/svg">
	.st056 {fill:#757575;}
	.st156 {fill:#1177D7;}
</style>
<path id="_x34_" class="st056" d="M0,1.5v12C0,13.8,0.2,14,0.5,14h14c0.3,0,0.5-0.2,0.5-0.5v-12C15,1.2,14.8,1,14.5,1h-14&#xD;&#xA;	C0.2,1,0,1.2,0,1.5z M14,13H1V3h13V13z" xmlns="http://www.w3.org/2000/svg" />
<path id="_x33_" class="st156" d="M5.2,10L3.9,7.1v2.3h0.4V10H2.7V9.4h0.4V6H2.7V5.4H4l1.2,2.9V6H4.8V5.4h1.7V6H6v4H5.2z" xmlns="http://www.w3.org/2000/svg" />
<path id="_x32_" class="st156" d="M9.4,8.7c0,0.4-0.1,1.4-1.4,1.4S6.7,9.2,6.7,8.7V7.9c0-0.4,0.1-1.3,1.3-1.3s1.4,0.9,1.4,1.3V8.7z&#xD;&#xA;	 M8.6,7.9c0-0.6-0.2-0.7-0.6-0.7c-0.3,0-0.6,0.2-0.6,0.7v0.8c0,0.6,0.2,0.7,0.6,0.7s0.6-0.2,0.6-0.7V7.9z" xmlns="http://www.w3.org/2000/svg" />
<path id="_x31_" class="st156" d="M9.6,7.2V6.7H11v0.6h-0.3l0.4,1.6l0.4-1.6h-0.3V6.7h1.4v0.6h-0.3L11.4,10h-0.8L9.9,7.2H9.6z" xmlns="http://www.w3.org/2000/svg" />
</g>
<g transform="translate(66, 0)">
<style type="text/css" xmlns="http://www.w3.org/2000/svg">
	.st057 {fill:#757575;}
	.st157 {fill:#1177D7;}
</style>
<path id="_x34_" class="st057" d="M0,1.5v12C0,13.8,0.2,14,0.5,14h14c0.3,0,0.5-0.2,0.5-0.5v-12C15,1.2,14.8,1,14.5,1h-14&#xD;&#xA;	C0.2,1,0,1.2,0,1.5z M14,13H1V3h13V13z" xmlns="http://www.w3.org/2000/svg" />
<path id="_x33_" class="st157" d="M6.4,8.2c0,0.6-0.1,1.9-1.7,1.9S3,8.9,3,8.2V7.1c0-0.7,0-1.8,1.7-1.8s1.7,1.2,1.7,1.8&#xD;&#xA;	C6.4,7.1,6.4,8.2,6.4,8.2z M3.9,8.2c0,0.9,0.3,1.1,0.9,1.1c0.7,0,0.9-0.3,0.9-1.1V7.1C5.7,6.2,5.4,6,4.8,6C4.2,6,3.9,6.2,3.9,7.1&#xD;&#xA;	V8.2z" xmlns="http://www.w3.org/2000/svg" />
<path id="_x32_" class="st157" d="M8.5,7.3c-0.1,0-0.1-0.1-0.2-0.1C8,7.2,7.8,7.4,7.7,8v0.6c0,0.6,0.2,0.8,0.6,0.8&#xD;&#xA;	c0.3,0,0.6-0.1,0.9-0.1v0.6c-0.2,0.1-0.6,0.1-0.9,0.1c-1.2,0-1.3-0.9-1.3-1.3V8c0-0.4,0.1-1.3,1.3-1.3c0.4,0,0.7,0.1,0.9,0.2v1H8.5&#xD;&#xA;	C8.5,7.8,8.5,7.3,8.5,7.3z" xmlns="http://www.w3.org/2000/svg" />
<path id="_x31_" class="st157" d="M11.4,10c-0.2,0.1-0.4,0.1-0.6,0.1c-0.7,0-0.9-0.4-0.9-1V7.3H9.5V6.7h0.4L10,5.9h0.6v0.8h0.8v0.6&#xD;&#xA;	h-0.8V9c0,0.2,0.1,0.4,0.3,0.4c0.1,0,0.2,0,0.4-0.1L11.4,10L11.4,10z" xmlns="http://www.w3.org/2000/svg" />
</g>
<g transform="translate(336, 0)">
<style type="text/css" xmlns="http://www.w3.org/2000/svg">
	.st058 {fill:#757575;}
	.st158 {fill:#1177D7;}
</style>
<path id="_x34_" class="st058" d="M8.3,14H0.5C0.2,14,0,13.8,0,13.5v-12C0,1.2,0.2,1,0.5,1h14C14.8,1,15,1.2,15,1.5V11h-1V3H1v10h6&#xD;&#xA;	L8.3,14z" xmlns="http://www.w3.org/2000/svg" />
<polygon id="_x33_" class="st158" points="8,13 12,10 12,12 16,12 16,14 12,14 12,16 " xmlns="http://www.w3.org/2000/svg" />
<path id="_x32_" class="st058" d="M7.4,9.3V10H4.9V9.3h0.8V6l-1,0.6V5.7L5.9,5h0.8v4.2L7.4,9.3C7.4,9.2,7.4,9.3,7.4,9.3z" xmlns="http://www.w3.org/2000/svg" />
<path id="_x31_" class="st058" d="M7.8,10.8c0.6,0,0.9-0.1,1.1-0.9L8,7.1H7.7V6.4h1.5v0.7H8.9l0.4,1.8l0.4-1.8H9.5V6.4h1.6v0.7h-0.4&#xD;&#xA;	L9.8,9.8c-0.4,1.1-0.6,1.6-2.1,1.6C7.8,11.4,7.8,10.8,7.8,10.8z" xmlns="http://www.w3.org/2000/svg" />
</g>
<g transform="translate(354, 0)">
<style type="text/css" xmlns="http://www.w3.org/2000/svg">
	.st059 {fill:#757575;}
	.st159 {fill:#1177D7;}
	.st259 {opacity:0.5;}
</style>
<path id="_x34_" class="st059" d="M0,1.5v12C0,13.8,0.2,14,0.5,14h14c0.3,0,0.5-0.2,0.5-0.5v-12C15,1.2,14.8,1,14.5,1h-14&#xD;&#xA;	C0.2,1,0,1.2,0,1.5z M14,13H1V3h13V13z" xmlns="http://www.w3.org/2000/svg" />
<rect id="_x33_" x="8" y="7" class="st159" width="2" height="2" xmlns="http://www.w3.org/2000/svg" />
<g id="_x31_" class="st259" xmlns="http://www.w3.org/2000/svg">
	<path id="_x32_" class="st059" d="M4,12H2v-2h2V12z M7,10H5v2h2V10z M10,10H8v2h2V10z M13,10h-2v2h2V10z M10,4H8v2h2V4z M13,4h-2v2h2&#xD;&#xA;		V4z M13,7h-2v2h2V7z M7,7H5v2h2V7z M4,7H2v2h2V7z M7,4H5v2h2V4z M4,4H2v2h2V4z" />
</g>
</g>
<g transform="translate(0, 24)">
<style type="text/css" xmlns="http://www.w3.org/2000/svg">
	.st060 {fill:#757575;}
	.st160 {fill:#1177D7;}
</style>
<path id="_x34_" class="st060" d="M0,1.5v12C0,13.8,0.2,14,0.5,14h14c0.3,0,0.5-0.2,0.5-0.5v-12C15,1.2,14.8,1,14.5,1h-14&#xD;&#xA;	C0.2,1,0,1.2,0,1.5z M14,13H1V3h13V13z" xmlns="http://www.w3.org/2000/svg" />
<path id="_x33_" class="st160" d="M4,8.8v0.6c0.1,0.1,0.4,0.1,0.5,0.1c0.4,0,0.7-0.1,0.7-0.6c0-0.3-0.1-0.4-0.2-0.6L4,7.8&#xD;&#xA;	C3.6,7.5,3.3,7.2,3.3,6.6c0-0.9,0.4-1.2,1.5-1.2c0.2,0,0.7,0.1,1.1,0.2v1H5.1V6C5,5.9,4.8,5.9,4.8,5.9c-0.4,0-0.7,0.2-0.7,0.6&#xD;&#xA;	c0,0.3,0.1,0.4,0.4,0.7C4.7,7.3,5,7.5,5.2,7.6c0.4,0.3,0.7,0.6,0.7,1.2c0,0.9-0.6,1.2-1.5,1.2c-0.2,0-0.8-0.1-1.2-0.2V8.8L4,8.8&#xD;&#xA;	L4,8.8z" xmlns="http://www.w3.org/2000/svg" />
<path id="_x32_" class="st160" d="M7.1,8.6c0,0.8,0.3,0.9,0.7,0.9c0.1,0,0.5-0.1,0.8-0.1v0.6C8.4,10,8,10.1,7.7,10.1&#xD;&#xA;	c-1.1,0-1.4-0.4-1.4-1.7c0-1.4,0.5-1.8,1.3-1.8c0.8,0,1.2,0.3,1.2,1.4c0,0.2,0,0.4-0.1,0.6H7.1z M8.1,8c0-0.1,0-0.1,0-0.2&#xD;&#xA;	c0-0.4-0.2-0.6-0.4-0.6C7.3,7.2,7.2,7.4,7.2,8H8.1z" xmlns="http://www.w3.org/2000/svg" />
<path id="_x31_" class="st160" d="M10.1,6.7L10.1,6.7c0.3,0,0.6-0.1,0.8-0.1c0.8,0,1.2,0.4,1.2,1.4v0.7c0,1-0.4,1.4-1.2,1.4&#xD;&#xA;	c-0.2,0-0.4-0.1-0.6-0.1v0.7h0.4v0.6H9.2v-0.6h0.3V7.2H9.1V6.7H10.1z M10.3,9.4c0.1,0.1,0.2,0.1,0.4,0.1c0.4,0,0.6-0.1,0.6-0.8V8.1&#xD;&#xA;	c0-0.6-0.1-0.8-0.6-0.8c-0.1,0-0.3,0.1-0.4,0.1V9.4z" xmlns="http://www.w3.org/2000/svg" />
</g>
<g transform="translate(372, 0)">
<style type="text/css" xmlns="http://www.w3.org/2000/svg">
	.st061 {fill:#757575;}
	.st161 {fill:#1177D7;}
	.st261 {opacity:0.5;}
</style>
<path id="_x34_" class="st061" d="M0,1.5v12C0,13.8,0.2,14,0.5,14h14c0.3,0,0.5-0.2,0.5-0.5v-12C15,1.2,14.8,1,14.5,1h-14&#xD;&#xA;	C0.2,1,0,1.2,0,1.5z M14,13H1V3h13V13z" xmlns="http://www.w3.org/2000/svg" />
<path id="_x33_" class="st161" d="M13,4H5v2h8V4z M10,10H2v2h8V10z M13,7H2v2h11V7z" xmlns="http://www.w3.org/2000/svg" />
<g id="_x31_" class="st261" xmlns="http://www.w3.org/2000/svg">
	<path id="_x32_" class="st061" d="M13,10h-2v2h2V10z M4,4H2v2h2V4z" />
</g>
</g>
<g transform="translate(504, 24)">
<style type="text/css" xmlns="http://www.w3.org/2000/svg">
	.st062 {fill:#757575;}
	.st162 {fill:#1177D7;}
	.st262 {opacity:0.5;}
</style>
<path id="_x33_" class="st062" d="M0,1.5v12C0,13.8,0.2,14,0.5,14h14c0.3,0,0.5-0.2,0.5-0.5v-12C15,1.2,14.8,1,14.5,1h-14&#xD;&#xA;	C0.2,1,0,1.2,0,1.5z M14,13H1V3h13V13z" xmlns="http://www.w3.org/2000/svg" />
<path id="_x32_" class="st162" d="M13,7H2v2h11V7z" xmlns="http://www.w3.org/2000/svg" />
<g id="_x31_" class="st262" xmlns="http://www.w3.org/2000/svg">
	<path id="_x31__x5F_1" class="st062" d="M4,12H2v-2h2V12z M7,10H5v2h2V10z M10,10H8v2h2V10z M13,10h-2v2h2V10z M10,4H8v2h2V4z M13,4&#xD;&#xA;		h-2v2h2V4z M7,4H5v2h2V4z M4,4H2v2h2V4z" />
</g>
</g>
<g transform="translate(486, 24)">
<style type="text/css" xmlns="http://www.w3.org/2000/svg">
	.st063 {fill:#757575;}
</style>
<path id="_x33_" class="st063" d="M14.5,1h-14C0.2,1,0,1.2,0,1.5v12C0,13.8,0.2,14,0.5,14h14c0.3,0,0.5-0.2,0.5-0.5v-12&#xD;&#xA;	C15,1.2,14.8,1,14.5,1z M1,13V3h13v10H1z" xmlns="http://www.w3.org/2000/svg" />
<path id="_x32_" class="st063" d="M7.5,9.3V10H5V9.3h0.8V6l-1,0.5V5.7L6,5h0.8v4.2L7.5,9.3L7.5,9.3z" xmlns="http://www.w3.org/2000/svg" />
<path id="_x31_" class="st063" d="M7.8,10.8c0.6,0,0.9-0.1,1.1-0.9L8,7.1H7.7V6.4h1.5v0.7H8.9l0.4,1.8l0.4-1.8H9.5V6.4h1.6v0.7h-0.4&#xD;&#xA;	L9.8,9.8c-0.4,1.1-0.6,1.6-2.1,1.6C7.8,11.4,7.8,10.8,7.8,10.8z" xmlns="http://www.w3.org/2000/svg" />
</g>
<g transform="translate(468, 24)">
<style type="text/css" xmlns="http://www.w3.org/2000/svg">
	.st064 {fill:#757575;}
	.st164 {opacity:0.5;}
	.st264 {fill:#1177D7;}
</style>
<path id="_x33__00000097477679186759105320000015405254254522675600_" class="st064" d="M0,1.5v12C0,13.8,0.2,14,0.5,14h14&#xD;&#xA;	c0.3,0,0.5-0.2,0.5-0.5v-12C15,1.2,14.8,1,14.5,1h-14C0.2,1,0,1.2,0,1.5z M14,13H1V3h13V13z" xmlns="http://www.w3.org/2000/svg" />
<g id="_x32_" class="st164" xmlns="http://www.w3.org/2000/svg">
	<rect id="_x31_1" x="11" y="7" class="st064" width="2" height="2" />
	<rect id="_x31_0" x="2" y="4" class="st064" width="2" height="2" />
	<rect id="_x39_" x="5" y="4" class="st064" width="2" height="2" />
	<rect id="_x38_" x="8" y="4" class="st064" width="2" height="2" />
	<rect id="_x37_" x="11" y="4" class="st064" width="2" height="2" />
	<rect id="_x36_" x="2" y="7" class="st064" width="2" height="2" />
	<rect id="_x35_" x="5" y="7" class="st064" width="2" height="2" />
	<rect id="_x34_" x="2" y="10" class="st064" width="2" height="2" />
	<rect id="_x33_" x="5" y="10" class="st064" width="2" height="2" />
	<rect id="_x32__00000121253572167149964570000017956271996407006858_" x="8" y="10" class="st064" width="2" height="2" />
	<rect id="_x31__00000039117913330644306150000017545975939751480240_" x="11" y="10" class="st064" width="2" height="2" />
</g>
<rect id="_x31_" x="8" y="7" class="st264" width="2" height="2" xmlns="http://www.w3.org/2000/svg" />
</g>
<g transform="translate(450, 24)">
<style type="text/css" xmlns="http://www.w3.org/2000/svg">
	.st065 {fill:#757575;}
	.st165 {fill:#D11C1C;}
	.st265 {fill:#1177D7;}
	.st365 {opacity:0.5;}
</style>
<path id="_x31_3" class="st065" d="M0,1.5v12C0,13.8,0.2,14,0.5,14h14c0.3,0,0.5-0.2,0.5-0.5v-12C15,1.2,14.8,1,14.5,1h-14&#xD;&#xA;	C0.2,1,0,1.2,0,1.5z M14,13H1V3h13V13z" xmlns="http://www.w3.org/2000/svg" />
<rect id="_x31_2" x="8" y="7" class="st165" width="2" height="2" xmlns="http://www.w3.org/2000/svg" />
<rect id="_x31_1" x="5" y="7" class="st265" width="2" height="2" xmlns="http://www.w3.org/2000/svg" />
<g id="_x30_" class="st365" xmlns="http://www.w3.org/2000/svg">
	<rect id="_x31_0" x="11" y="7" class="st065" width="2" height="2" />
	<rect id="_x39_" x="2" y="4" class="st065" width="2" height="2" />
	<rect id="_x38_" x="5" y="4" class="st065" width="2" height="2" />
	<rect id="_x37_" x="8" y="4" class="st065" width="2" height="2" />
	<rect id="_x36_" x="11" y="4" class="st065" width="2" height="2" />
	<rect id="_x35_" x="2" y="7" class="st065" width="2" height="2" />
	<rect id="_x34_" x="2" y="10" class="st065" width="2" height="2" />
	<rect id="_x33_" x="5" y="10" class="st065" width="2" height="2" />
	<rect id="_x32_" x="8" y="10" class="st065" width="2" height="2" />
	<rect id="_x31_" x="11" y="10" class="st065" width="2" height="2" />
</g>
</g>
<g transform="translate(18, 42)">
<style type="text/css" xmlns="http://www.w3.org/2000/svg">
	.st066 {fill:#757575;}
	.st166 {fill:#1177D7;}
	.st266 {fill:#D11C1C;}
</style>
<path id="_x31_3" class="st066" d="M0,1.5v12C0,13.8,0.2,14,0.5,14h14c0.3,0,0.5-0.2,0.5-0.5v-12C15,1.2,14.8,1,14.5,1h-14&#xD;&#xA;	C0.2,1,0,1.2,0,1.5z M14,13H1V3h13V13z" xmlns="http://www.w3.org/2000/svg" />
<rect id="_x31_2" x="5" y="4" class="st166" width="2" height="2" xmlns="http://www.w3.org/2000/svg" />
<rect id="_x31_1" x="8" y="4" class="st166" width="2" height="2" xmlns="http://www.w3.org/2000/svg" />
<rect id="_x31_0" x="11" y="4" class="st166" width="2" height="2" xmlns="http://www.w3.org/2000/svg" />
<rect id="_x39_" x="2" y="7" class="st166" width="2" height="2" xmlns="http://www.w3.org/2000/svg" />
<rect id="_x38_" x="5" y="7" class="st266" width="2" height="2" xmlns="http://www.w3.org/2000/svg" />
<rect id="_x37_" x="8" y="7" class="st166" width="2" height="2" xmlns="http://www.w3.org/2000/svg" />
<rect id="_x36_" x="11" y="7" class="st166" width="2" height="2" xmlns="http://www.w3.org/2000/svg" />
<rect id="_x35_" x="2" y="10" class="st166" width="2" height="2" xmlns="http://www.w3.org/2000/svg" />
<rect id="_x34_" x="5" y="10" class="st166" width="2" height="2" xmlns="http://www.w3.org/2000/svg" />
<rect id="_x33_" x="8" y="10" class="st166" width="2" height="2" xmlns="http://www.w3.org/2000/svg" />
<rect id="_x32_" x="11" y="10" class="st166" width="2" height="2" xmlns="http://www.w3.org/2000/svg" />
<rect id="_x31_" x="2" y="4" class="st166" width="2" height="2" xmlns="http://www.w3.org/2000/svg" />
</g>
<g transform="translate(414, 24)">
<style type="text/css" xmlns="http://www.w3.org/2000/svg">
	.st067 {fill:#757575;}
	.st167 {fill:#1177D7;}
	.st267 {fill:#D11C1C;}
	.st367 {opacity:0.5;}
</style>
<path id="_x33_" class="st067" d="M0,1.5v12C0,13.8,0.2,14,0.5,14h14c0.3,0,0.5-0.2,0.5-0.5v-12C15,1.2,14.8,1,14.5,1h-14&#xD;&#xA;	C0.2,1,0,1.2,0,1.5z M14,13H1V3h13V13z" xmlns="http://www.w3.org/2000/svg" />
<rect id="_x32_" x="8" y="7" class="st167" width="2" height="2" xmlns="http://www.w3.org/2000/svg" />
<rect id="_x31_" x="5" y="7" class="st267" width="2" height="2" xmlns="http://www.w3.org/2000/svg" />
<g id="_x30_" class="st367" xmlns="http://www.w3.org/2000/svg">
	<rect id="_x31_0" x="11" y="7" class="st067" width="2" height="2" />
	<rect id="_x39_" x="2" y="4" class="st067" width="2" height="2" />
	<rect id="_x38_" x="5" y="4" class="st067" width="2" height="2" />
	<rect id="_x37_" x="8" y="4" class="st067" width="2" height="2" />
	<rect id="_x36_" x="11" y="4" class="st067" width="2" height="2" />
	<rect id="_x35_" x="2" y="7" class="st067" width="2" height="2" />
	<rect id="_x34_" x="2" y="10" class="st067" width="2" height="2" />
	<rect id="_x33__00000089563950064459712810000010690122741376510859_" x="5" y="10" class="st067" width="2" height="2" />
	<rect id="_x32__00000021110549124770184330000014713122687827315857_" x="8" y="10" class="st067" width="2" height="2" />
	<rect id="_x31__00000054234132314685001880000012118890800852676509_" x="11" y="10" class="st067" width="2" height="2" />
</g>
</g>
<g transform="translate(0, 42)">
<polygon style="fill:#757575;" points="11,14 3,8 11,2 12,3 5.5,8 12,13 " xmlns="http://www.w3.org/2000/svg" />
</g>
<g transform="translate(396, 24)">
<polygon style="fill:#757575;" points="12,13 4,7 12,1 13,2 6.5,7 13,12 " xmlns="http://www.w3.org/2000/svg" />
<polygon style="fill:#757575;" points="2,9 10,15 11,14 3,8 " xmlns="http://www.w3.org/2000/svg" />
</g>
<g transform="translate(378, 24)">
<g xmlns="http://www.w3.org/2000/svg">
	<path style="fill:#757575;" d="M5,11H4v-1l0,0c-0.4,0.7-1.1,1-2,1c-0.6,0-1.1-0.2-1.5-0.5S0,9.8,0,9.3c0-1.1,0.7-1.8,2.1-2L4,7.1&#xD;&#xA;		c0-1-0.4-1.5-1.3-1.5c-0.8,0-1.5,0.2-2.1,0.7v-1c0.6-0.4,1.3-0.6,2.1-0.6C4.2,4.7,5,5.5,5,7V11z M4,7.8L2.5,8&#xD;&#xA;		C2,8.1,1.6,8.2,1.4,8.4S1,8.8,1,9.2c0,0.3,0.1,0.5,0.3,0.7s0.5,0.3,0.9,0.3c0.5,0,0.9-0.2,1.2-0.5S4,8.9,4,8.4V7.8z" />
</g>
<g xmlns="http://www.w3.org/2000/svg">
	<path style="fill:#757575;" d="M16,10.6c-0.4,0.3-0.9,0.4-1.5,0.4c-0.8,0-1.4-0.3-1.8-0.8C12.2,9.6,12,8.8,12,8&#xD;&#xA;		c0-0.9,0.3-1.6,0.8-2.1c0.5-0.6,1.2-0.9,2-0.9c0.5,0,0.9,0.1,1.2,0.3v0.9c-0.4-0.3-0.8-0.4-1.3-0.4c-0.5,0-1,0.2-1.3,0.6&#xD;&#xA;		c-0.3,0.4-0.5,1-0.5,1.7c0,0.7,0.2,1.2,0.5,1.6c0.3,0.4,0.8,0.6,1.3,0.6c0.5,0,0.9-0.2,1.3-0.5V10.6z" />
</g>
<g xmlns="http://www.w3.org/2000/svg">
	<polygon style="fill:#44A147;" points="10,5 6,10 7,11 11,6 	" />
	<circle style="fill:#44A147;" cx="7" cy="6" r="1" />
	<circle style="fill:#44A147;" cx="10" cy="10" r="1" />
</g>
</g>
<g transform="translate(516, 0)">
<style type="text/css" xmlns="http://www.w3.org/2000/svg">
	.st071 {fill:#67BC6B;}
	.st171 {fill:#317D3D;}
	.st271 {fill:#757575;}
</style>
<circle id="_x34_" class="st071" cx="10.5" cy="4.5" r="3" xmlns="http://www.w3.org/2000/svg" />
<path id="_x33_" class="st171" d="M10.5,2C11.9,2,13,3.1,13,4.5S11.9,7,10.5,7S8,5.9,8,4.5S9.1,2,10.5,2 M10.5,1C8.5,1,7,2.6,7,4.5&#xD;&#xA;	S8.5,8,10.5,8S14,6.4,14,4.5S12.4,1,10.5,1L10.5,1z" xmlns="http://www.w3.org/2000/svg" />
<path id="_x32_" class="st271" d="M8,15c1.7,0,3.3-0.5,4.5-1.5L14,15v-3.3V10h-1.3H9l2.1,2.1c-0.8,0.6-1.9,1.1-3.1,1.1&#xD;&#xA;	c-3.9,0-6.5-1.8-7-4.1C1.5,12.4,4.4,15,8,15z" xmlns="http://www.w3.org/2000/svg" />
</g>
<g transform="translate(498, 0)">
<style type="text/css" xmlns="http://www.w3.org/2000/svg">
	.st072 {fill:#67BC6B;}
	.st172 {fill:#317D3D;}
	.st272 {fill:#757575;}
</style>
<circle id="_x34_" class="st072" cx="4.5" cy="11.5" r="2" xmlns="http://www.w3.org/2000/svg" />
<path id="_x33_" class="st172" d="M4.5,10C5.4,10,6,10.7,6,11.5S5.4,13,4.5,13S3,12.3,3,11.5S3.7,10,4.5,10 M4.5,9&#xD;&#xA;	C3.2,9,2,10.1,2,11.5S3.2,14,4.5,14S7,12.9,7,11.5S5.9,9,4.5,9L4.5,9z" xmlns="http://www.w3.org/2000/svg" />
<path id="_x32_" class="st272" d="M8,2C6.3,2,4.7,2.5,3.5,3.5L2,2v3.3V7h1.3H7L4.9,4.9c0.9-0.6,2-1,3.1-1c3.9,0,6.5,1.8,7,4.1&#xD;&#xA;	C14.5,4.6,11.6,2,8,2z" xmlns="http://www.w3.org/2000/svg" />
</g>
<g transform="translate(480, 0)">
<g xmlns="http://www.w3.org/2000/svg">
	<g>
		<circle style="fill:#EF5551;" cx="3" cy="8" r="1.5" />
		<path style="fill:#B72025;" d="M3,7c0.6,0,1,0.4,1,1S3.6,9,3,9S2,8.6,2,8S2.4,7,3,7 M3,6C1.9,6,1,6.9,1,8c0,1.1,0.9,2,2,2&#xD;&#xA;			s2-0.9,2-2C5,6.9,4.1,6,3,6L3,6z" />
	</g>
</g>
<g xmlns="http://www.w3.org/2000/svg">
	<g>
		<circle style="fill:#EF5551;" cx="8" cy="8" r="1.5" />
		<path style="fill:#B72025;" d="M8,7c0.6,0,1,0.4,1,1S8.6,9,8,9S7,8.6,7,8S7.4,7,8,7 M8,6C6.9,6,6,6.9,6,8c0,1.1,0.9,2,2,2&#xD;&#xA;			s2-0.9,2-2C10,6.9,9.1,6,8,6L8,6z" />
	</g>
</g>
<g xmlns="http://www.w3.org/2000/svg">
	<g>
		<circle style="fill:#EF5551;" cx="13" cy="8" r="1.5" />
		<path style="fill:#B72025;" d="M13,7c0.6,0,1,0.4,1,1s-0.4,1-1,1s-1-0.4-1-1S12.4,7,13,7 M13,6c-1.1,0-2,0.9-2,2c0,1.1,0.9,2,2,2&#xD;&#xA;			s2-0.9,2-2C15,6.9,14.1,6,13,6L13,6z" />
	</g>
</g>
</g>
<g transform="translate(462, 0)">
<style type="text/css" xmlns="http://www.w3.org/2000/svg">
	.st074 {fill:#757575;}
	.st174 {fill:#EF5551;}
	.st274 {fill:#B72025;}
</style>
<rect x="1" y="9" class="st074" width="14" height="1" xmlns="http://www.w3.org/2000/svg" />
<path class="st174" d="M1,4v1c1.7,0,3,1.3,3,3l0,0h1l0,0C5,5.8,3.2,4,1,4z" xmlns="http://www.w3.org/2000/svg" />
<path class="st174" d="M15,4v1c-2,0-3,1.3-3,3l0,0h-1l0,0C11,5.8,13,4,15,4z" xmlns="http://www.w3.org/2000/svg" />
<g xmlns="http://www.w3.org/2000/svg">
	<circle class="st174" cx="4.5" cy="9.5" r="2" />
	<g>
		<path class="st274" d="M4.5,8C5.3,8,6,8.7,6,9.5S5.3,11,4.5,11S3,10.3,3,9.5S3.7,8,4.5,8 M4.5,7C3.1,7,2,8.1,2,9.5S3.1,12,4.5,12&#xD;&#xA;			S7,10.9,7,9.5S5.9,7,4.5,7L4.5,7z" />
	</g>
</g>
<g xmlns="http://www.w3.org/2000/svg">
	<circle class="st174" cx="11.5" cy="9.5" r="2" />
	<g>
		<path class="st274" d="M11.5,8C12.3,8,13,8.7,13,9.5S12.3,11,11.5,11S10,10.3,10,9.5S10.7,8,11.5,8 M11.5,7C10.1,7,9,8.1,9,9.5&#xD;&#xA;			s1.1,2.5,2.5,2.5S14,10.9,14,9.5S12.9,7,11.5,7L11.5,7z" />
	</g>
</g>
</g>
<g transform="translate(444, 0)">
<path style="fill:#9E9E9E;" d="M8,2C4.7,2,2,4.7,2,8s2.7,6,6,6s6-2.7,6-6S11.3,2,8,2z M8,13c-2.8,0-5-2.2-5-5c0-2.8,2.2-5,5-5&#xD;&#xA;	c2.8,0,5,2.2,5,5C13,10.8,10.8,13,8,13z" xmlns="http://www.w3.org/2000/svg" />
<circle style="fill:#9E9E9E;" cx="8" cy="8" r="3.5" xmlns="http://www.w3.org/2000/svg" />
</g>
<g transform="translate(426, 0)">
<g xmlns="http://www.w3.org/2000/svg">
	<path style="fill:#757575;" d="M5,11H4v-1l0,0c-0.4,0.7-1.1,1-2,1c-0.6,0-1.1-0.2-1.5-0.5S0,9.8,0,9.3c0-1.1,0.7-1.8,2.1-2L4,7.1&#xD;&#xA;		c0-1-0.4-1.5-1.3-1.5c-0.8,0-1.5,0.2-2.1,0.7v-1C1.2,5,1.9,4.8,2.8,4.8C4.2,4.8,5,5.5,5,7V11z M4,7.9L2.5,8.1&#xD;&#xA;		C2,8.1,1.6,8.2,1.4,8.4S1,8.8,1,9.2C1,9.5,1.1,9.8,1.4,10s0.5,0.3,0.9,0.3c0.5,0,0.9-0.2,1.2-0.5S4,9,4,8.5V7.9z" />
</g>
<g xmlns="http://www.w3.org/2000/svg">
	<path style="fill:#757575;" d="M12,10L12,10v1h-1V2h1v4l0,0c0.4-0.8,0.9-1.2,1.8-1.2c0.7,0,1.2,0.3,1.6,0.8C15.8,6.1,16,6.8,16,7.7&#xD;&#xA;		c0,1-0.2,1.8-0.7,2.4c-0.4,0.6-1,0.9-1.8,0.9C12.8,11,12.4,10.7,12,10z M11.9,7.6v0.8c0,0.5,0.1,0.9,0.4,1.3&#xD;&#xA;		c0.3,0.3,0.7,0.5,1.1,0.5c0.5,0,0.9-0.2,1.2-0.7s0.4-1.1,0.4-1.9c0-0.7-0.1-1.2-0.4-1.6c-0.3-0.4-0.7-0.6-1.1-0.6&#xD;&#xA;		c-0.5,0-0.9,0.2-1.2,0.6S11.9,7,11.9,7.6z" />
</g>
<g xmlns="http://www.w3.org/2000/svg">
	<path style="fill:#EF5551;" d="M10,10.6C9.6,10.9,9.1,11,8.5,11c-0.8,0-1.4-0.3-1.8-0.8S6,8.8,6,8c0-0.9,0.3-1.6,0.8-2.1&#xD;&#xA;		S7.9,5,8.8,5C9.2,5,9.6,5.1,10,5.3v0.9C9.6,5.9,9.2,5.8,8.7,5.8c-0.5,0-1,0.2-1.3,0.6C7,6.8,6.9,7.4,6.9,8.1c0,0.7,0.2,1.2,0.5,1.6&#xD;&#xA;		c0.3,0.4,0.8,0.6,1.3,0.6c0.5,0,0.9-0.2,1.3-0.5V10.6z" />
</g>
</g>
<g transform="translate(408, 0)">
<g xmlns="http://www.w3.org/2000/svg">
	<g>
		<rect x="3" y="5" style="fill:#757575;" width="10" height="2" />
		<rect x="3" y="9" style="fill:#757575;" width="10" height="2" />
	</g>
	<polygon style="fill:#757575;" points="5,14 4,13 11,2 12,3 	" />
</g>
</g>
<g transform="translate(54, 42)">
<g xmlns="http://www.w3.org/2000/svg">
	<path style="fill:#757575;" d="M5,11H4v-1l0,0c-0.4,0.7-1.1,1-2,1c-0.6,0-1.1-0.2-1.5-0.5S0,9.8,0,9.3c0-1.1,0.7-1.8,2.1-2L4,7.1&#xD;&#xA;		c0-1-0.4-1.5-1.3-1.5c-0.8,0-1.5,0.2-2.1,0.7v-1c0.6-0.4,1.3-0.6,2.1-0.6C4.2,4.7,5,5.5,5,7V11z M4,7.8L2.5,8&#xD;&#xA;		C2,8.1,1.6,8.2,1.4,8.4S1,8.8,1,9.2c0,0.3,0.1,0.5,0.3,0.7s0.5,0.3,0.9,0.3c0.5,0,0.9-0.2,1.2-0.5S4,8.9,4,8.4V7.8z" />
</g>
<g xmlns="http://www.w3.org/2000/svg">
	<path style="fill:#757575;" d="M16,10.6c-0.4,0.3-0.9,0.4-1.5,0.4c-0.8,0-1.4-0.3-1.8-0.8C12.2,9.6,12,8.8,12,8&#xD;&#xA;		c0-0.9,0.3-1.6,0.8-2.1c0.5-0.6,1.2-0.9,2-0.9c0.5,0,0.9,0.1,1.2,0.3v0.9c-0.4-0.3-0.8-0.4-1.3-0.4c-0.5,0-1,0.2-1.3,0.6&#xD;&#xA;		c-0.3,0.4-0.5,1-0.5,1.7c0,0.7,0.2,1.2,0.5,1.6c0.3,0.4,0.8,0.6,1.3,0.6c0.5,0,0.9-0.2,1.3-0.5V10.6z" />
</g>
<g xmlns="http://www.w3.org/2000/svg">
	<polygon style="fill:#EF5551;" points="10,5 6,10 7,11 11,6 	" />
	<circle style="fill:#EF5551;" cx="7" cy="6" r="1" />
	<circle style="fill:#EF5551;" cx="10" cy="10" r="1" />
</g>
</g>
<g transform="translate(36, 42)">
<polygon style="fill:#757575;" points="13,2 4,2 3,2 8,8 3,14 4,14 13,14 13,12 6.5,12 10,8 6.5,4 13,4 " xmlns="http://www.w3.org/2000/svg" />
<rect x="12" y="3.5" style="fill:#757575;" width="1" height="1.5" xmlns="http://www.w3.org/2000/svg" />
<rect x="12" y="11" style="fill:#757575;" width="1" height="1.5" xmlns="http://www.w3.org/2000/svg" />
</g>

</svg>

